<?xml version="1.0" encoding="utf-8"?>
<!-- Generator: Adobe Illustrator 27.9.0, SVG Export Plug-In . SVG Version: 6.00 Build 0)  -->
<svg version="1.1" id="Layer_1" xmlns="http://www.w3.org/2000/svg" xmlns:xlink="http://www.w3.org/1999/xlink" x="0px" y="0px"
	 viewBox="0 0 1920 1080" style="enable-background:new 0 0 1920 1080;" xml:space="preserve">
<style type="text/css">
	.st0{fill:none;stroke:#000000;stroke-width:2;stroke-linecap:round;stroke-linejoin:round;stroke-miterlimit:10;}
</style>
<g>
	<g>
		<path class="st0" d="M870.26,731.53c-2.93-4.83-5.85-9.65-8.93-14.72c-5.85,0-11.97,0-18.49,0c-2.8,4.91-5.77,10.12-8.99,15.76
			c6.26,0,12.16,0,18.63,0c-3.26,5.48-6.23,10.45-9.49,15.93c6.47,0,12.37,0,18.62,0c-3.13,5.5-6.02,10.58-8.96,15.76
			c-6.29,0-12.53,0-18.73,0c-3.2,5.34-6.32,10.53-9.56,15.93c-6.06,0-12.29,0-18.73,0c-3,5.26-5.97,10.47-9.19,16.11
			c6.26,0,12.16,0,18.63,0c-3.26,5.48-6.23,10.45-9.49,15.93c6.47,0,12.37,0,18.62,0c-3.13,5.5-6.02,10.58-9.06,15.93
			c-6.2,0-12.43,0-18.67,0"/>
		<path class="st0" d="M889.31,636.97c-5.89,0-11.78,0-17.97,0c-3.15,5.13-6.38,10.4-9.66,15.76c-6.19,0-12.32,0-18.64,0
			c-3,5.26-5.97,10.47-9.19,16.11c6.26,0,12.16,0,18.23,0c3.16,5.52,6.23,10.86,9.33,16.28c-2.93,5.15-5.82,10.23-8.76,15.41
			c-6.29,0-12.53,0-18.73,0c-3.2,5.34-6.32,10.53-9.56,15.93c-6.06,0-12.29,0-18.73,0c-3,5.26-5.97,10.47-9.19,16.11
			c6.26,0,12.16,0,18.63,0c-3.26,5.48-6.23,10.45-9.49,15.93c6.47,0,12.37,0,18.62,0c-3.13,5.5-6.02,10.58-8.96,15.76
			c-6.29,0-12.53,0-18.73,0c-3.2,5.34-6.32,10.53-9.56,15.93c-6.06,0-12.29,0-18.73,0c-3,5.26-5.97,10.47-9.19,16.11
			c6.26,0,12.16,0,18.63,0c-3.26,5.48-6.22,10.45-9.49,15.93c6.47,0,12.37,0,18.62,0c-3.13,5.5-6.02,10.58-9.06,15.93
			c-6.2,0-12.43,0-18.67,0"/>
		<path class="st0" d="M684.26,605.11c6.01,0,12.01,0,18.6,0c-3.26,5.48-6.23,10.45-9.49,15.93c6.47,0,12.37,0,18.62,0
			c-3.13,5.5-6.02,10.58-8.96,15.76c-6.29,0-12.53,0-18.73,0c-3.2,5.34-6.32,10.53-9.66,16.11c-6.07,0-12.42,0-18.77,0"/>
		<path class="st0" d="M609.45,732.57c6.01,0,12.01,0,18.6,0c-3.26,5.48-6.23,10.45-9.49,15.93c6.47,0,12.37,0,18.62,0
			c-3.13,5.5-6.02,10.58-8.96,15.76c-6.29,0-12.53,0-18.73,0c-3.2,5.34-6.32,10.53-9.66,16.11c-6.07,0-12.42,0-18.77,0"/>
		<path class="st0" d="M646.85,668.84c6.01,0,12.01,0,18.6,0c-3.26,5.48-6.23,10.45-9.49,15.93c6.47,0,12.37,0,18.62,0
			c-3.13,5.5-6.02,10.58-8.96,15.76c-6.29,0-12.53,0-18.73,0c-3.2,5.34-6.32,10.53-9.66,16.11c-6.07,0-12.42,0-18.77,0"/>
		<path class="st0" d="M721.67,541.38c6.01,0,12.01,0,18.6,0c-3.26,5.48-6.23,10.45-9.49,15.93c6.47,0,12.37,0,18.62,0
			c-3.13,5.5-6.02,10.58-8.96,15.76c-6.29,0-12.53,0-18.73,0c-3.2,5.34-6.32,10.53-9.66,16.11c-6.07,0-12.42,0-18.77,0"/>
		<path class="st0" d="M982.48,766.17c-2.84,4.65-5.68,9.29-8.78,14.37c-6.23,0-12.59,0-18.95,0c3.43,5.61,6.62,10.83,9.83,16.08
			c-3.08,5.12-6.13,10.18-9.4,15.62c6.18,0,12.07,0,18.12,0c3.3,5.34,6.49,10.51,9.78,15.85c6.1,0,12.45,0,19.14,0
			c2.8-4.91,5.73-10.03,8.83-15.45c-2.98-5.23-6.05-10.62-9.5-16.67c-5.56,0-11.45,0-17.34,0"/>
		<path class="st0" d="M646.85,828.16c6.12,0,12.24,0,18.66,0c2.9-5.08,5.87-10.29,9.09-15.93c-6.26,0-12.16,0-18.63,0
			c3.26-5.48,6.23-10.45,9.39-15.76c-6.48,0-12.49,0-18.67,0c-2.99,4.99-6.11,10.19-9.35,15.59c-6.06,0-12.29,0-18.73,0
			c-3.02,5.3-6.02,10.56-9.18,16.11c6.49,0,12.61,0,18.73,0"/>
		<path class="st0" d="M814.15,636.97c-5.89,0-11.78,0-17.73,0c-3.1,5.16-6.22,10.36-9.46,15.76c-6.06,0-12.29,0-18.73,0
			c-3,5.26-5.97,10.47-9.19,16.11c6.26,0,12.16,0,18.63,0c-3.26,5.48-6.23,10.45-9.39,15.76c6.48,0,12.49,0,18.67,0
			c2.99-4.99,6.11-10.19,9.35-15.59c5.95,0,12.07,0,18.67,0c-3.16,5.31-6.12,10.28-9.39,15.76c6.47,0,12.37,0,18.62,0
			c-3.13,5.5-6.02,10.58-8.96,15.76c-6.29,0-12.53,0-18.73,0c-3.2,5.34-6.32,10.53-9.56,15.93c-5.95,0-12.07,0-18.67,0
			c3.16-5.31,6.12-10.28,9.28-15.59c-6.48,0-12.49,0-18.67,0c-2.99,4.99-6.11,10.19-9.35,15.59c-6.06,0-12.29,0-18.73,0
			c-3,5.26-5.97,10.47-9.19,16.11c6.26,0,12.16,0,18.63,0c-3.26,5.48-6.23,10.45-9.39,15.76c6.48,0,12.49,0,18.67,0
			c2.99-4.99,6.11-10.19,9.35-15.59c5.95,0,12.07,0,18.67,0c-3.16,5.31-6.12,10.28-9.39,15.76c6.47,0,12.37,0,18.62,0
			c-3.13,5.5-6.02,10.58-8.96,15.76c-6.29,0-12.53,0-18.73,0c-3.2,5.34-6.32,10.53-9.56,15.93c-5.95,0-12.07,0-18.67,0
			c3.16-5.31,6.12-10.28,9.28-15.59c-6.48,0-12.49,0-18.67,0c-2.99,4.99-6.11,10.19-9.35,15.59c-6.06,0-12.29,0-18.73,0
			c-3,5.26-5.97,10.47-9.19,16.11c6.26,0,12.16,0,18.63,0c-3.26,5.48-6.23,10.45-9.39,15.76c6.48,0,12.49,0,18.67,0
			c2.99-4.99,6.11-10.19,9.35-15.59c5.95,0,12.07,0,18.67,0c-3.16,5.31-6.12,10.28-9.39,15.76c6.47,0,12.37,0,18.62,0
			c-3.13,5.5-6.02,10.58-9.06,15.93c-6.2,0-12.43,0-18.67,0"/>
		<path class="st0" d="M786.44,621.73c-2.85,4.99-5.7,9.97-8.61,15.07c-6.28,0-12.52,0-18.72,0c-3.2,5.34-6.32,10.53-9.56,15.93
			c-5.95,0-12.07,0-18.67,0c3.16-5.31,6.12-10.28,9.39-15.76c-6.47,0-12.37,0-18.62,0c3.13-5.5,6.02-10.58,8.96-15.76
			c6.29,0,12.53,0,18.73,0c3.2-5.34,6.32-10.53,9.56-15.93c5.95,0,12.06,0,18.67,0c-3.16,5.31-6.12,10.28-9.59,16.11
			c6.68,0,12.57,0,18.46,0"/>
		<path class="st0" d="M739.68,669.18c-6,0-12.01,0-18.29,0c-2.89,4.82-6.01,10.01-9.25,15.41c-6.06,0-12.29,0-18.73,0
			c-3,5.26-5.97,10.47-9.19,16.11c6.26,0,12.16,0,18.63,0c-3.26,5.48-6.23,10.45-9.39,15.76c6.48,0,12.49,0,18.67,0
			c2.99-4.99,6.11-10.19,9.35-15.59c6.06,0,12.29,0,18.73,0c3-5.26,5.97-10.47,9.19-16.11c-6.26,0-12.16,0-18.53,0
			c3.11-5.39,5.96-10.32,8.8-15.24"/>
		<path class="st0" d="M926.72,700.7c-5.89,0-11.78,0-17.97,0c-3.15,5.13-6.38,10.4-9.66,15.76c-6.2,0-12.32,0-18.64,0
			c-3,5.26-5.97,10.47-9.19,16.11c6.26,0,12.16,0,18.23,0c3.16,5.52,6.23,10.86,9.33,16.28c-2.93,5.15-5.82,10.23-8.76,15.41
			c-6.29,0-12.53,0-18.73,0c-3.2,5.34-6.32,10.53-9.56,15.93c-6.06,0-12.29,0-18.73,0c-3,5.26-5.97,10.47-9.19,16.11
			c6.26,0,12.16,0,18.63,0c-3.26,5.48-6.23,10.45-9.49,15.93c6.47,0,12.37,0,18.62,0c-3.13,5.5-6.02,10.58-9.06,15.93
			c-6.2,0-12.43,0-18.67,0"/>
		<path class="st0" d="M711.62,749.19c-2.85,4.99-5.7,9.97-8.61,15.07c-6.28,0-12.52,0-18.72,0c-3.2,5.34-6.32,10.53-9.56,15.93
			c-5.95,0-12.07,0-18.67,0c3.16-5.31,6.12-10.28,9.39-15.76c-6.47,0-12.37,0-18.62,0c3.13-5.5,6.02-10.58,8.96-15.76
			c6.29,0,12.53,0,18.73,0c3.2-5.34,6.32-10.53,9.56-15.93c5.95,0,12.07,0,18.67,0c-3.16,5.31-6.12,10.28-9.59,16.11
			c6.68,0,12.57,0,18.46,0"/>
		<path class="st0" d="M1150.81,798.03c-2.91,4.83-5.83,9.66-8.79,14.57c3.06,5.1,6.1,10.16,9.24,15.39c-6.22,0-12.34,0-18.7,0
			c-2.98-4.96-6.1-10.16-9.25-15.41c-6.22,0-12.57,0-18.85,0c3.21,5.22,6.28,10.21,9.48,15.41c-6.07,0-11.96,0-18.06,0
			c2.64-4.74,5.24-9.38,7.83-14.03"/>
		<path class="st0" d="M1180.6,812.23c5.77,0,11.55,0,17.32,0c3.14,5.24,6.29,10.48,9.51,15.85c6.08,0,12.31,0,18.7,0
			c-3.04-5.06-6.07-10.12-9.26-15.43c3.05-5.13,6.19-10.42,9.51-16c-3.03-5.05-6.19-10.33-9.51-15.86c3.05-5.13,6.19-10.42,9.51-16
			c-3.03-5.05-6.19-10.33-9.52-15.88c2.85-4.75,5.81-9.67,8.77-14.59"/>
		<path class="st0" d="M636.46,270.17c-2.81-5.06-5.62-10.12-8.56-15.41c-5.98,0-12.22,0-18.76,0c3.08,5.43,6.01,10.6,8.93,15.76
			c6.04,0,12.04,0,18.04,0"/>
		<path class="st0" d="M711.28,397.63c-2.81-5.06-5.62-10.12-8.56-15.41c-5.98,0-12.22,0-18.76,0c3.08,5.43,6.01,10.6,8.93,15.76
			c6.04,0,12.04,0,18.04,0"/>
		<path class="st0" d="M786.09,397.63c-2.81-5.06-5.62-10.12-8.56-15.41c-5.98,0-12.22,0-18.76,0c3.08,5.43,6.01,10.6,8.93,15.76
			c6.04,0,12.04,0,18.04,0"/>
		<path class="st0" d="M759.08,286.8c-3.3-5.27-6.59-10.54-10.07-16.11c-5.87,0-12.1,0-18.58,0c3.18,5.29,6.21,10.35,9.46,15.76
			c-6.21,0-12.22,0-18.63,0c3.18,5.61,6.11,10.78,9.13,16.11c6.17,0,12.4,0,18.74,0c3.1,5.16,6.3,10.49,9.46,15.76
			c6.25,0,12.37,0,18.7,0c-3.24-5.41-6.28-10.47-9.56-15.93c6.35,0,12.36,0,18.67,0c-3.07-5.43-5.92-10.47-9.02-15.93
			c-5.72,0-11.84,0-17.96,0"/>
		<path class="st0" d="M851.55,350.18c-5.89,0-11.78,0-18.12,0c-2.93-4.87-6.14-10.2-9.5-15.76c-5.98,0-12.22,0-18.71,0
			c-2.88-5.06-5.9-10.36-9.17-16.11c6.42,0,12.43,0,18.64,0c-3.24-5.41-6.28-10.47-9.46-15.76c6.36,0,12.48,0,18.7,0
			c3.1,5.16,6.3,10.49,9.46,15.76c6.25,0,12.37,0,18.7,0c-3.24-5.41-6.28-10.47-9.56-15.93c6.35,0,12.36,0,18.67,0
			c-3.07-5.43-5.92-10.47-8.92-15.76c-5.93,0-12.17,0-18.75,0c-3.04-5.04-6.25-10.37-9.6-15.93c-5.98,0-12.22,0-18.69,0
			c3.18,5.29,6.21,10.35,9.46,15.76c-6.21,0-12.22,0-18.67,0c-2.93-4.87-6.14-10.2-9.5-15.76c-5.98,0-12.22,0-18.71,0
			c-2.88-5.06-5.9-10.36-9.17-16.11c6.42,0,12.43,0,18.54,0c-2.93-5.05-5.68-9.8-8.42-14.55"/>
		<path class="st0" d="M796.48,350.53c-3.3-5.27-6.59-10.54-10.07-16.11c-5.87,0-12.1,0-18.58,0c3.18,5.29,6.21,10.35,9.46,15.76
			c-6.21,0-12.22,0-18.63,0c3.18,5.61,6.11,10.78,9.13,16.11c6.17,0,12.4,0,18.74,0c3.1,5.16,6.3,10.49,9.46,15.76
			c6.25,0,12.37,0,18.7,0c-3.24-5.41-6.28-10.47-9.56-15.93c6.35,0,12.36,0,18.67,0c-3.07-5.43-5.92-10.47-9.02-15.93
			c-5.72,0-11.84,0-17.96,0"/>
		<path class="st0" d="M711.28,270.17c-2.81-5.06-5.62-10.12-8.56-15.41c-5.98,0-12.22,0-18.76,0c3.08,5.43,6.01,10.6,8.93,15.76
			c6.04,0,12.04,0,18.04,0"/>
		<path class="st0" d="M786.09,429.5c-2.81-5.06-5.62-10.12-8.56-15.41c-5.98,0-12.22,0-18.76,0c3.08,5.43,6.01,10.6,8.93,15.76
			c6.04,0,12.04,0,18.04,0"/>
		<path class="st0" d="M673.87,333.9c-2.81-5.06-5.62-10.12-8.56-15.41c-5.98,0-12.22,0-18.76,0c3.08,5.43,6.01,10.6,8.93,15.76
			c6.04,0,12.04,0,18.04,0"/>
		<path class="st0" d="M748.68,333.9c-2.81-5.06-5.62-10.12-8.56-15.41c-5.98,0-12.22,0-18.76,0c3.08,5.43,6.01,10.6,8.93,15.76
			c6.04,0,12.04,0,18.04,0"/>
		<path class="st0" d="M711.28,302.04c-2.81-5.06-5.62-10.12-8.56-15.41c-5.98,0-12.22,0-18.76,0c3.08,5.43,6.01,10.6,8.93,15.76
			c6.04,0,12.04,0,18.04,0"/>
		<path class="st0" d="M748.68,365.77c-2.81-5.06-5.62-10.12-8.56-15.41c-5.98,0-12.22,0-18.76,0c3.08,5.43,6.01,10.6,8.93,15.76
			c6.04,0,12.04,0,18.04,0"/>
		<path class="st0" d="M748.68,461.37c-2.81-5.06-5.62-10.12-8.56-15.41c-5.98,0-12.22,0-18.76,0c3.08,5.43,6.01,10.6,8.93,15.76
			c6.04,0,12.04,0,18.04,0"/>
		<path class="st0" d="M832.85,412.87c-2.93-4.83-5.85-9.65-8.93-14.72c-5.97,0-12.2,0-18.68,0c3.31,5.51,6.48,10.8,9.67,16.12
			c-3.06,5.08-6.1,10.13-9.38,15.57c6.18,0,12.07,0,18.13,0c3.13,5.08,6.16,9.99,9.18,14.89"/>
		<path class="st0" d="M907.67,285.41c-2.93-4.83-5.85-9.65-8.93-14.72c-5.97,0-12.2,0-18.68,0c3.31,5.51,6.48,10.8,9.66,16.1
			c-3.18,5.32-6.33,10.61-9.55,15.99c2.94,4.84,5.86,9.67,8.79,14.49"/>
		<path class="st0" d="M870.26,349.14c-2.93-4.83-5.85-9.65-8.93-14.72c-5.97,0-12.2,0-18.68,0c3.31,5.51,6.48,10.8,9.66,16.1
			c-3.18,5.32-6.33,10.61-9.55,15.99c2.94,4.84,5.86,9.67,8.79,14.49"/>
		<path class="st0" d="M907.67,795.26c-2.99-4.86-5.98-9.71-9.06-14.72c-5.95,0-11.95,0-18.35,0c-2.8,4.91-5.77,10.12-8.89,15.59
			c6.28,0,12.29,0,18.71,0c2.51-4.47,5.2-9.25,7.89-14.03"/>
		<path class="st0" d="M1282.43,573.59c-3.14-5.3-6.28-10.59-9.45-15.93c-6.26,0-12.61,0-18.88,0c3.32,5.44,6.52,10.66,9.72,15.9
			c-3.08,5.12-6.13,10.18-9.3,15.44c6.19,0,12.19,0,18.14,0c3.32,5.59,6.54,11.02,9.76,16.45"/>
		<path class="st0" d="M1095.39,573.59c-3.2-5.33-6.4-10.66-9.56-15.93c-6.38,0-12.62,0-18.79,0c3.08,5,6.01,9.77,8.95,14.55"/>
		<path class="st0" d="M1282.43,541.72c-3.2-5.33-6.4-10.66-9.56-15.93c-6.38,0-12.62,0-18.79,0c3.08,5,6.01,9.77,8.95,14.55"/>
		<path class="st0" d="M945.77,318.66c-3.14-5.3-6.28-10.59-9.45-15.93c-6.26,0-12.61,0-18.88,0c3.32,5.44,6.52,10.66,9.71,15.89
			c-3.2,5.36-6.36,10.65-9.56,16.01c3.18,5.31,6.35,10.59,9.53,15.89c-3.18,5.32-6.33,10.61-9.55,15.99
			c2.94,4.84,5.86,9.67,8.79,14.49"/>
		<path class="st0" d="M1170.21,732.91c-3.2-5.33-6.4-10.66-9.56-15.93c-6.38,0-12.62,0-18.79,0c3.08,5,6.01,9.77,8.95,14.55"/>
		<path class="st0" d="M1132.8,796.65c-3.2-5.33-6.4-10.66-9.56-15.93c-6.38,0-12.62,0-18.79,0c3.08,5,6.01,9.77,8.95,14.55"/>
		<path class="st0" d="M945.77,286.8c-3.2-5.33-6.4-10.66-9.56-15.93c-6.38,0-12.62,0-18.79,0c3.08,5,6.01,9.77,8.95,14.55"/>
		<path class="st0" d="M1319.84,509.86c-3.14-5.3-6.28-10.59-9.45-15.93c-6.26,0-12.61,0-18.88,0c3.32,5.44,6.52,10.66,9.71,15.89
			c-3.2,5.36-6.36,10.65-9.56,16.01c3.18,5.31,6.35,10.59,9.53,15.89c-3.18,5.32-6.33,10.61-9.53,15.97
			c3.18,5.31,6.35,10.59,9.53,15.89c-3.18,5.32-6.33,10.61-9.53,15.97c3.18,5.31,6.35,10.59,9.53,15.89
			c-3.18,5.32-6.33,10.61-9.53,15.97c3.18,5.31,6.35,10.59,9.54,15.91c-3.06,5.08-6.1,10.13-9.27,15.4c6.19,0,12.19,0,18.14,0
			c3.32,5.59,6.54,11.02,9.76,16.45"/>
		<path class="st0" d="M1207.62,382.39c-3.2-5.33-6.4-10.66-9.56-15.93c-6.38,0-12.62,0-18.79,0c3.08,5,6.01,9.77,8.95,14.55"/>
		<path class="st0" d="M983.17,350.53c-3.14-5.3-6.28-10.59-9.45-15.93c-6.26,0-12.61,0-18.88,0c3.32,5.44,6.52,10.66,9.71,15.89
			c-3.2,5.36-6.36,10.65-9.56,16.01c3.18,5.31,6.35,10.59,9.53,15.89c-3.18,5.32-6.33,10.61-9.53,15.97
			c3.18,5.31,6.35,10.59,9.53,15.89c-3.18,5.32-6.33,10.61-9.55,15.99c2.94,4.84,5.86,9.67,8.79,14.49"/>
		<path class="st0" d="M1170.21,764.78c-3.14-5.3-6.28-10.59-9.45-15.93c-6.26,0-12.61,0-18.88,0c3.32,5.44,6.52,10.66,9.72,15.9
			c-3.08,5.12-6.13,10.18-9.3,15.44c6.19,0,12.19,0,18.14,0c3.32,5.59,6.54,11.02,9.76,16.45"/>
		<path class="st0" d="M646.85,382.05c6.01,0,12.01,0,18.22,0c-3.24-5.41-6.28-10.47-9.56-15.93c6.35,0,12.36,0,18.67,0
			c-3.07-5.43-5.92-10.47-8.92-15.76c-5.93,0-12.17,0-18.75,0c-3.04-5.04-6.25-10.37-9.71-16.11c-5.87,0-12.11,0-18.35,0"/>
		<path class="st0" d="M721.67,509.51c6.01,0,12.01,0,18.22,0c-3.24-5.41-6.28-10.47-9.56-15.93c6.35,0,12.36,0,18.67,0
			c-3.07-5.43-5.92-10.47-8.92-15.76c-5.93,0-12.17,0-18.75,0c-3.04-5.04-6.25-10.37-9.71-16.11c-5.87,0-12.11,0-18.35,0"/>
		<path class="st0" d="M908.36,477.99c-3.14-5.3-6.28-10.59-9.55-16.11c-5.92,0-12.04,0-18.56,0c-2.8,4.91-5.77,10.12-8.99,15.76
			c6.26,0,12.16,0,18.26,0c2.88,5.07,5.66,9.98,8.44,14.89"/>
		<path class="st0" d="M1272.04,811.19c-2.78-4.96-5.55-9.92-8.18-14.62c3.01-5.27,5.94-10.4,9.04-15.82
			c-2.98-5.23-6.05-10.62-9.11-15.98c-6.31,0-12.55,0-18.67,0c2.82,4.99,5.52,9.77,8.21,14.55"/>
		<path class="st0" d="M908.36,350.53c-3.2-5.33-6.4-10.66-9.66-16.11c-6.03,0-12.04,0-18.44,0c-2.8,4.91-5.77,10.12-8.99,15.76
			c6.26,0,12.15,0,18.04,0"/>
		<path class="st0" d="M1132.8,509.86c-3.2-5.33-6.4-10.66-9.66-16.11c-6.03,0-12.04,0-18.46,0c-2.91,5.14-5.99,10.58-9.09,16.06
			c2.97,5.39,5.89,10.68,8.81,15.97"/>
		<path class="st0" d="M1245.02,637.32c-3.14-5.3-6.28-10.59-9.55-16.11c-5.92,0-12.04,0-18.56,0c-2.8,4.91-5.77,10.12-8.99,15.76
			c6.26,0,12.16,0,18.26,0c2.88,5.07,5.66,9.98,8.44,14.89"/>
		<path class="st0" d="M1245.02,318.66c-3.2-5.33-6.4-10.66-9.66-16.11c-6.03,0-12.04,0-18.44,0c-2.8,4.91-5.77,10.12-8.99,15.76
			c6.26,0,12.15,0,18.04,0"/>
		<path class="st0" d="M945.77,414.26c-3.14-5.3-6.28-10.59-9.55-16.11c-5.92,0-12.04,0-18.56,0c-2.8,4.91-5.77,10.12-8.99,15.76
			c6.26,0,12.16,0,18.26,0c2.88,5.07,5.66,9.98,8.44,14.89"/>
		<path class="st0" d="M870.95,414.26c-3.2-5.33-6.4-10.66-9.66-16.11c-6.03,0-12.04,0-18.44,0c-2.8,4.91-5.77,10.12-8.99,15.76
			c6.26,0,12.15,0,18.04,0"/>
		<path class="st0" d="M684.26,445.78c6.01,0,12.01,0,18.22,0c-3.24-5.41-6.28-10.47-9.56-15.93c6.35,0,12.36,0,18.67,0
			c-3.07-5.43-5.92-10.47-8.92-15.76c-5.93,0-12.17,0-18.75,0c-3.04-5.04-6.25-10.37-9.71-16.11c-5.87,0-12.11,0-18.35,0"/>
		<path class="st0" d="M609.45,318.32c6.01,0,12.01,0,18.22,0c-3.24-5.41-6.28-10.47-9.56-15.93c6.35,0,12.36,0,18.67,0
			c-3.07-5.43-5.92-10.47-8.92-15.76c-5.93,0-12.17,0-18.75,0c-3.04-5.04-6.25-10.37-9.71-16.11c-5.87,0-12.11,0-18.35,0"/>
		<path class="st0" d="M936.76,333.9c3.05-5.12,6.1-10.24,9.28-15.59c6.3,0,12.54,0,18.73,0c3.01-5.27,5.85-10.26,8.87-15.54
			c-2.98-5.23-6.05-10.62-9.2-16.15c-5.97,0-11.98,0-18.45,0c-2.94,4.91-6.08,10.16-9.23,15.41"/>
		<path class="st0" d="M637.85,240.04c2.83,4.88,5.67,9.76,8.55,14.72c6.35,0,12.58,0,18.87,0c2.84,5.02,5.76,10.19,8.91,15.76
			c-6.3,0-12.31,0-18.66,0c3.28,5.47,6.32,10.53,9.56,15.93c-6.21,0-12.22,0-18.63,0c3.18,5.61,6.11,10.78,9.13,16.11
			c6.17,0,12.4,0,18.74,0c3.1,5.16,6.3,10.49,9.57,15.93c6.26,0,12.5,0,18.78,0c2.84,5.02,5.76,10.19,8.91,15.76
			c-6.3,0-12.31,0-18.66,0c3.28,5.47,6.32,10.53,9.56,15.93c-6.21,0-12.22,0-18.63,0c3.18,5.61,6.11,10.78,9.13,16.11
			c6.17,0,12.4,0,18.74,0c3.1,5.16,6.3,10.49,9.57,15.93c6.26,0,12.5,0,18.78,0c2.84,5.02,5.76,10.19,8.91,15.76
			c-6.3,0-12.31,0-18.66,0c3.28,5.47,6.32,10.53,9.56,15.93c-6.21,0-12.22,0-18.63,0c3.18,5.61,6.11,10.78,9.13,16.11
			c6.17,0,12.4,0,18.74,0c3.1,5.16,6.3,10.49,9.57,15.93c6.26,0,12.5,0,18.81,0c2.68,4.8,5.46,9.76,8.24,14.72"/>
		<path class="st0" d="M1291.44,748.85c-2.91-5.25-5.83-10.49-8.95-16.11c6.27,0,12.64,0,18.85,0c3.11-5.44,5.95-10.43,8.97-15.72
			c-2.98-5.23-6.05-10.62-9.2-16.15c-5.97,0-11.98,0-18.39,0c-3.04,4.96-6.27,10.23-9.66,15.76c-5.86,0-11.75,0-17.64,0"/>
		<path class="st0" d="M843.59,240.04c2.75,4.75,5.5,9.49,8.43,14.55c-6.11,0-12.12,0-18.53,0c3.18,5.61,6.11,10.78,9.13,16.11
			c6.17,0,12.4,0,18.74,0c3.1,5.16,6.3,10.49,9.46,15.76c6.14,0,12.14,0,18.14,0"/>
		<path class="st0" d="M974.17,397.63c3.05-5.12,6.1-10.24,9.28-15.59c6.3,0,12.54,0,18.73,0c3.01-5.27,5.85-10.26,8.87-15.54
			c-2.98-5.23-6.05-10.62-9.2-16.15c-5.97,0-11.98,0-18.45,0c-2.94,4.91-6.08,10.16-9.23,15.41"/>
		<path class="st0" d="M1263.03,638.7c-2.91,4.83-5.83,9.66-8.79,14.57c3.19,5.32,6.36,10.6,9.55,15.93
			c-3.06,5.08-6.1,10.13-9.27,15.4c6.19,0,12.19,0,18.14,0c3.32,5.59,6.54,11.02,9.76,16.45"/>
		<path class="st0" d="M1076.34,318.32c-5.89,0-11.78,0-17.97,0c-3.15,5.13-6.38,10.4-9.87,16.11c-6.22,0-12.59,0-18.95,0
			c3.43,5.61,6.62,10.83,9.83,16.08c-3.08,5.12-6.13,10.18-9.4,15.62c6.18,0,12.07,0,18.22,0c3.31,5.52,6.55,10.9,9.78,16.28"/>
		<path class="st0" d="M1094.7,320.05c-2.84,4.65-5.68,9.29-8.78,14.37c-6.23,0-12.59,0-18.95,0c3.43,5.61,6.62,10.83,9.83,16.08
			c-3.08,5.12-6.13,10.18-9.4,15.62c6.18,0,12.07,0,18.22,0c3.31,5.52,6.55,10.9,9.78,16.28"/>
		<path class="st0" d="M1019.89,731.53c-2.93-4.83-5.85-9.65-8.82-14.55c-6.2,0-12.55,0-18.81,0c3.32,5.44,6.52,10.66,9.72,15.9
			c-3.08,5.12-6.13,10.18-9.4,15.62c6.18,0,12.07,0,18.22,0c3.31,5.52,6.55,10.9,9.78,16.28"/>
		<path class="st0" d="M1281.74,349.14c-2.93-4.83-5.85-9.65-8.82-14.55c-6.2,0-12.55,0-18.81,0c3.32,5.44,6.52,10.66,9.72,15.9
			c-3.08,5.12-6.13,10.18-9.4,15.62c6.18,0,12.07,0,18.22,0c3.31,5.52,6.55,10.9,9.78,16.28"/>
		<path class="st0" d="M1188.57,509.51c-5.89,0-11.78,0-17.97,0c-3.15,5.13-6.38,10.4-9.87,16.11c-6.22,0-12.59,0-18.95,0
			c3.43,5.61,6.62,10.83,9.83,16.08c-3.08,5.12-6.13,10.18-9.4,15.62c6.18,0,12.07,0,18.22,0c3.31,5.52,6.55,10.9,9.78,16.28"/>
		<path class="st0" d="M1319.15,285.41c-2.93-4.83-5.85-9.65-8.82-14.55c-6.2,0-12.55,0-18.81,0c3.32,5.44,6.52,10.66,9.72,15.9
			c-3.08,5.12-6.13,10.18-9.4,15.62c6.18,0,12.07,0,18.22,0c3.31,5.52,6.55,10.9,9.78,16.28"/>
		<path class="st0" d="M1038.59,256.32c-2.91,4.83-5.83,9.66-8.79,14.57c3.19,5.32,6.36,10.6,9.55,15.93
			c-3.06,5.08-6.1,10.13-9.38,15.57c6.18,0,12.07,0,18.22,0c3.31,5.52,6.55,10.9,9.78,16.28"/>
		<path class="st0" d="M1047.6,269.48c-2.75-4.86-5.5-9.72-8.32-14.72c-5.99,0-12,0-18.41,0c-3.04,4.96-6.27,10.23-9.77,15.93
			c-6.22,0-12.59,0-18.95,0c3.43,5.61,6.62,10.83,9.83,16.08c-3.08,5.12-6.13,10.18-9.3,15.44c6.19,0,12.19,0,18.14,0
			c3.32,5.59,6.54,11.02,9.76,16.45"/>
		<path class="st0" d="M888.96,479.38c-2.91,4.83-5.83,9.66-8.79,14.57c3.19,5.32,6.36,10.6,9.54,15.91
			c-3.18,5.32-6.33,10.61-9.53,15.97c3.18,5.31,6.35,10.59,9.54,15.91c-3.06,5.08-6.1,10.13-9.38,15.57c6.18,0,12.07,0,18.22,0
			c3.31,5.52,6.55,10.9,9.78,16.28"/>
		<path class="st0" d="M814.15,511.24c-2.91,4.83-5.83,9.66-8.79,14.57c3.19,5.32,6.36,10.6,9.55,15.93
			c-3.06,5.08-6.1,10.13-9.38,15.57c6.18,0,12.07,0,18.22,0c3.31,5.52,6.55,10.9,9.78,16.28"/>
		<path class="st0" d="M851.55,574.97c-2.91,4.83-5.83,9.66-8.79,14.57c3.19,5.32,6.36,10.6,9.55,15.93
			c-3.06,5.08-6.1,10.13-9.38,15.57c6.18,0,12.07,0,18.22,0c3.31,5.52,6.55,10.9,9.78,16.28"/>
		<path class="st0" d="M945.07,604.07c-2.93-4.83-5.85-9.65-8.82-14.55c-6.2,0-12.55,0-18.81,0c3.32,5.44,6.52,10.66,9.72,15.9
			c-3.08,5.12-6.13,10.18-9.4,15.62c6.18,0,12.07,0,18.22,0c3.31,5.52,6.55,10.9,9.78,16.28"/>
		<path class="st0" d="M1225.63,638.7c-2.91,4.83-5.83,9.66-8.79,14.56c3.19,5.32,6.36,10.6,9.55,15.93
			c-3.06,5.08-6.1,10.13-9.27,15.4c6.19,0,12.19,0,18.14,0c3.32,5.59,6.54,11.02,9.76,16.45"/>
		<path class="st0" d="M907.67,638.7c-2.84,4.65-5.68,9.29-8.78,14.37c-6.23,0-12.59,0-18.95,0c3.43,5.61,6.62,10.83,9.83,16.08
			c-3.08,5.12-6.13,10.18-9.4,15.62c6.18,0,12.07,0,18.22,0c3.31,5.52,6.55,10.9,9.78,16.28"/>
		<path class="st0" d="M888.96,413.91c-5.77,0-11.55,0-17.62,0c-3.15,5.13-6.38,10.4-9.87,16.11c-6.22,0-12.59,0-18.95,0
			c3.43,5.61,6.62,10.83,9.82,16.06c-3.2,5.36-6.36,10.65-9.56,16.01c3.18,5.31,6.35,10.59,9.54,15.91
			c-3.06,5.08-6.1,10.13-9.38,15.57c6.18,0,12.07,0,18.22,0c3.31,5.52,6.55,10.9,9.78,16.28"/>
		<path class="st0" d="M1169.52,447.51c-2.84,4.65-5.68,9.29-8.78,14.37c-6.23,0-12.59,0-18.95,0c3.43,5.61,6.62,10.83,9.83,16.08
			c-3.08,5.12-6.13,10.18-9.4,15.62c6.18,0,12.07,0,18.22,0c3.31,5.52,6.55,10.9,9.78,16.28"/>
		<path class="st0" d="M1057.29,667.8c-2.93-4.83-5.85-9.65-8.82-14.55c-6.2,0-12.55,0-18.81,0c3.32,5.44,6.52,10.66,9.71,15.89
			c-3.2,5.36-6.36,10.65-9.57,16.04c2.94,4.84,5.86,9.67,8.79,14.49"/>
		<path class="st0" d="M1169.52,349.14c-2.99-4.86-5.98-9.71-8.95-14.55c-6.3,0-12.53,0-18.7,0c3.08,5,6.01,9.77,8.95,14.55"/>
		<path class="st0" d="M1132.11,285.41c-2.93-4.83-5.85-9.65-8.82-14.55c-6.2,0-12.55,0-18.81,0c3.32,5.44,6.52,10.66,9.71,15.89
			c-3.2,5.36-6.36,10.65-9.57,16.04c2.94,4.84,5.86,9.67,8.79,14.49"/>
		<path class="st0" d="M1169.52,285.41c-2.93-4.83-5.85-9.65-8.82-14.55c-6.2,0-12.55,0-18.81,0c3.32,5.44,6.52,10.66,9.71,15.89
			c-3.2,5.36-6.36,10.65-9.57,16.04c2.94,4.84,5.86,9.67,8.79,14.49"/>
		<path class="st0" d="M1105.79,621.04c5.66,0,11.32,0,17.24,0c3.31,5.52,6.55,10.9,9.78,16.28"/>
		<path class="st0" d="M1244.33,285.41c-2.99-4.86-5.98-9.71-8.95-14.55c-6.3,0-12.53,0-18.7,0c3.08,5,6.01,9.77,8.95,14.55"/>
		<path class="st0" d="M1281.74,508.47c-2.99-4.86-5.98-9.71-8.95-14.55c-6.3,0-12.53,0-18.7,0c3.08,5,6.01,9.77,8.95,14.55"/>
		<path class="st0" d="M1206.92,349.14c-2.99-4.86-5.98-9.71-8.95-14.55c-6.3,0-12.53,0-18.7,0c3.08,5,6.01,9.77,8.95,14.55"/>
		<path class="st0" d="M1068.38,621.04c5.66,0,11.32,0,17.24,0c3.31,5.52,6.55,10.9,9.78,16.28"/>
		<path class="st0" d="M1319.15,763.39c-2.93-4.83-5.85-9.65-8.93-14.72c-5.85,0-11.97,0-18.49,0c-2.8,4.91-5.77,10.12-8.99,15.76
			c6.26,0,12.16,0,18.23,0c3.16,5.52,6.23,10.86,9.33,16.28c-2.93,5.15-5.82,10.23-8.96,15.76c-6.22,0-12.59,0-18.86,0
			c3.12,5.62,6.03,10.86,8.95,16.11"/>
		<path class="st0" d="M945.07,540.34c-2.93-4.83-5.85-9.65-8.93-14.72c-5.85,0-11.97,0-18.49,0c-2.8,4.91-5.77,10.12-8.99,15.76
			c6.26,0,12.16,0,18.23,0c3.16,5.52,6.23,10.86,9.33,16.28c-2.93,5.15-5.82,10.23-8.76,15.41c-6.18,0-12.3,0-18.62,0
			c-3.25,5.31-6.48,10.57-9.77,15.93c-6.2,0-12.32,0-18.65,0c-3.1,5.48-6.19,10.93-9.31,16.45c2.74,4.9,5.44,9.72,8.14,14.55"/>
		<path class="st0" d="M993.56,493.58c5.66,0,11.32,0,17.24,0c3.31,5.52,6.55,10.9,9.78,16.28"/>
		<path class="st0" d="M918.75,493.58c5.66,0,11.32,0,17.24,0c3.31,5.52,6.55,10.9,9.78,16.28"/>
		<path class="st0" d="M898.66,812.58c-6,0-12.01,0-18.51,0c-2.72,4.78-5.72,10.04-8.83,15.5c6.32,0,12.33,0,18.68,0
			c2.81-4.91,5.73-10.03,8.66-15.15"/>
		<path class="st0" d="M1132.11,667.8c-2.93-4.83-5.85-9.65-8.82-14.55c-6.2,0-12.55,0-18.81,0c3.32,5.44,6.52,10.66,9.71,15.89
			c-3.2,5.36-6.36,10.65-9.57,16.04c2.94,4.84,5.86,9.67,8.79,14.49"/>
		<path class="st0" d="M1169.52,667.8c-2.99-4.86-5.98-9.71-8.95-14.55c-6.3,0-12.53,0-18.7,0c3.08,5,6.01,9.77,8.95,14.55"/>
		<path class="st0" d="M1292.82,621.04c5.77,0,11.55,0,17.36,0c3.21,5.41,6.44,10.85,9.66,16.28"/>
		<path class="st0" d="M1292.82,525.44c5.77,0,11.55,0,17.36,0c3.21,5.41,6.44,10.85,9.66,16.28"/>
		<path class="st0" d="M1019.89,604.07c-2.99-4.86-5.98-9.71-8.95-14.55c-6.3,0-12.53,0-18.7,0c3.08,5,6.01,9.77,8.95,14.55"/>
		<path class="st0" d="M1180.6,748.5c5.77,0,11.55,0,17.36,0c3.21,5.41,6.44,10.85,9.66,16.28"/>
		<path class="st0" d="M1094.7,667.8c-2.93-4.83-5.85-9.65-8.93-14.72c-5.85,0-11.97,0-18.49,0c-2.8,4.91-5.77,10.12-8.99,15.76
			c6.26,0,12.16,0,18.23,0c3.16,5.52,6.23,10.86,9.33,16.28c-2.93,5.15-5.82,10.23-8.76,15.41c-6.18,0-12.3,0-18.69,0
			c-3.15,5.26-6.29,10.51-9.43,15.76"/>
		<path class="st0" d="M1197.23,524.4c-2.78-4.96-5.55-9.92-8.18-14.62c3.01-5.27,5.94-10.4,9.04-15.82
			c-2.98-5.23-6.05-10.62-9.5-16.67c-5.56,0-11.45,0-17.34,0"/>
		<path class="st0" d="M1333.35,318.32c-4.27,0-8.54,0-13.12,0c-3.15,5.13-6.38,10.4-9.66,15.76c-6.2,0-12.32,0-18.64,0
			c-3,5.26-5.97,10.47-9.19,16.11c6.26,0,12.16,0,18.23,0c3.16,5.52,6.23,10.86,9.33,16.28c-2.93,5.15-5.82,10.23-8.76,15.41
			c-6.18,0-12.3,0-18.62,0c-3.25,5.31-6.48,10.57-9.98,16.28c-6.22,0-12.59,0-18.95,0c3.43,5.61,6.62,10.83,9.82,16.06
			c-3.2,5.36-6.36,10.65-9.57,16.04c2.94,4.84,5.86,9.67,8.79,14.49"/>
		<path class="st0" d="M1019.89,635.93c-2.99-4.86-5.98-9.71-8.95-14.55c-6.3,0-12.53,0-18.7,0c3.08,5,6.01,9.77,8.95,14.55"/>
		<path class="st0" d="M982.48,476.61c-2.93-4.83-5.85-9.65-8.93-14.72c-5.85,0-11.97,0-18.49,0c-2.8,4.91-5.77,10.12-8.99,15.76
			c6.26,0,12.16,0,18.23,0c3.16,5.52,6.23,10.86,9.33,16.28c-2.93,5.15-5.82,10.23-8.76,15.41c-6.18,0-12.3,0-18.69,0
			c-3.15,5.26-6.29,10.51-9.43,15.76"/>
		<path class="st0" d="M909.4,732.22c6,0,12.01,0,18.16,0c2.81-4.92,5.66-9.91,8.65-15.16c-3-5.36-6.08-10.86-9.01-16.08
			c3.01-5.27,5.94-10.4,9.04-15.82c-2.98-5.23-6.05-10.62-9.5-16.67c-5.56,0-11.45,0-17.34,0"/>
		<path class="st0" d="M1309.45,683.73c-2.75-4.86-5.5-9.72-8.22-14.55c-6.33,0-12.57,0-18.69,0c2.82,4.99,5.52,9.77,8.21,14.55"/>
		<path class="st0" d="M1281.74,476.61c-2.99-4.86-5.98-9.71-8.95-14.55c-6.3,0-12.53,0-18.7,0c3.08,5,6.01,9.77,8.95,14.55"/>
		<path class="st0" d="M1244.33,476.61c-2.93-4.83-5.85-9.65-8.82-14.55c-6.2,0-12.55,0-18.81,0c3.32,5.44,6.52,10.66,9.71,15.89
			c-3.2,5.36-6.36,10.65-9.57,16.04c2.94,4.84,5.86,9.67,8.79,14.49"/>
		<path class="st0" d="M1094.7,604.07c-2.93-4.83-5.85-9.65-8.82-14.55c-6.2,0-12.55,0-18.81,0c3.32,5.44,6.52,10.66,9.71,15.89
			c-3.2,5.36-6.36,10.65-9.57,16.04c2.94,4.84,5.86,9.67,8.79,14.49"/>
		<path class="st0" d="M1057.29,476.61c-2.93-4.83-5.85-9.65-8.82-14.55c-6.2,0-12.55,0-18.81,0c3.32,5.44,6.52,10.66,9.71,15.89
			c-3.2,5.36-6.36,10.65-9.57,16.04c2.94,4.84,5.86,9.67,8.79,14.49"/>
		<path class="st0" d="M1019.89,476.61c-2.93-4.83-5.85-9.65-8.82-14.55c-6.2,0-12.55,0-18.81,0c3.32,5.44,6.52,10.66,9.71,15.89
			c-3.2,5.36-6.36,10.65-9.57,16.04c2.94,4.84,5.86,9.67,8.79,14.49"/>
		<path class="st0" d="M1132.11,604.07c-2.93-4.83-5.85-9.65-8.82-14.55c-6.2,0-12.55,0-18.81,0c3.32,5.44,6.52,10.66,9.71,15.89
			c-3.2,5.36-6.36,10.65-9.57,16.04c2.94,4.84,5.86,9.67,8.79,14.49"/>
		<path class="st0" d="M1096.43,413.57c6,0,12.01,0,18.16,0c2.81-4.92,5.66-9.91,8.65-15.16c-3-5.36-6.08-10.85-9.01-16.08
			c3.01-5.27,5.94-10.4,9.04-15.82c-2.98-5.23-6.05-10.62-9.5-16.67c-5.56,0-11.45,0-17.34,0"/>
		<path class="st0" d="M1010.19,333.21c-2.75-4.86-5.5-9.72-8.22-14.55c-6.33,0-12.57,0-18.69,0c2.82,4.99,5.52,9.77,8.21,14.55"/>
		<path class="st0" d="M1319.84,254.93c-3.01-5.03-6.01-10.07-9.46-15.85c-3.19,5.51-6,10.36-8.87,15.34c-6.13,0-12.25,0-18.57,0
			c-3.25,5.31-6.48,10.57-9.77,15.93c-6.2,0-12.32,0-18.64,0c-3,5.26-5.97,10.47-9.19,16.11c6.26,0,12.16,0,18.23,0
			c3.16,5.52,6.23,10.86,9.33,16.28c-2.93,5.15-5.82,10.23-8.76,15.41c-6.18,0-12.3,0-18.62,0c-3.25,5.31-6.48,10.57-9.98,16.28
			c-6.22,0-12.59,0-18.95,0c3.43,5.61,6.62,10.83,9.82,16.06c-3.2,5.36-6.36,10.65-9.57,16.04c2.94,4.84,5.86,9.67,8.79,14.49"/>
		<path class="st0" d="M1019.89,540.34c-2.93-4.83-5.85-9.65-8.93-14.72c-5.85,0-11.97,0-18.49,0c-2.8,4.91-5.77,10.12-8.99,15.76
			c6.26,0,12.16,0,18.23,0c3.16,5.52,6.23,10.86,9.33,16.28c-2.93,5.15-5.82,10.23-8.76,15.41c-6.18,0-12.3,0-18.69,0
			c-3.15,5.26-6.29,10.51-9.43,15.76"/>
		<path class="st0" d="M795.44,447.51c-2.84,4.65-5.68,9.29-8.68,14.2c-6.21,0-12.45,0-19.03,0c3.41,5.69,6.58,10.97,9.77,16.29
			c-3.06,5.08-6.1,10.13-9.38,15.57c6.18,0,12.07,0,18.13,0c3.13,5.08,6.16,9.99,9.18,14.89"/>
		<path class="st0" d="M1094.7,540.34c-2.99-4.86-5.98-9.71-8.95-14.55c-6.3,0-12.53,0-18.7,0c3.08,5,6.01,9.77,8.95,14.55"/>
		<path class="st0" d="M1151.16,509.51c-5.89,0-11.78,0-17.97,0c-3.15,5.13-6.38,10.4-9.66,15.76c-6.19,0-12.32,0-18.64,0
			c-3,5.26-5.97,10.47-9.19,16.11c6.26,0,12.16,0,18.23,0c3.16,5.52,6.23,10.86,9.33,16.28c-2.93,5.15-5.82,10.23-8.76,15.41
			c-6.18,0-12.3,0-18.69,0c-3.15,5.26-6.29,10.51-9.43,15.76"/>
		<path class="st0" d="M1292.82,589.17c5.77,0,11.55,0,17.36,0c3.21,5.41,6.44,10.85,9.66,16.28"/>
		<path class="st0" d="M1030.97,684.77c5.66,0,11.32,0,17.24,0c3.31,5.52,6.55,10.9,9.78,16.28"/>
		<path class="st0" d="M982.48,540.34c-2.93-4.83-5.85-9.65-8.82-14.55c-6.2,0-12.55,0-18.81,0c3.32,5.44,6.52,10.66,9.71,15.89
			c-3.2,5.36-6.36,10.65-9.57,16.04c2.94,4.84,5.86,9.67,8.79,14.49"/>
		<path class="st0" d="M918.75,366.12c5.66,0,11.32,0,17.24,0c3.31,5.52,6.55,10.9,9.78,16.28"/>
		<path class="st0" d="M956.16,366.12c5.77,0,11.55,0,17.36,0c3.21,5.41,6.44,10.85,9.66,16.28"/>
		<path class="st0" d="M1169.52,381.01c-2.99-4.86-5.98-9.71-8.95-14.55c-6.3,0-12.53,0-18.7,0c3.08,5,6.01,9.77,8.95,14.55"/>
		<path class="st0" d="M1169.52,699.66c-2.99-4.86-5.98-9.71-8.95-14.55c-6.3,0-12.53,0-18.7,0c3.08,5,6.01,9.77,8.95,14.55"/>
		<path class="st0" d="M1057.29,540.34c-2.99-4.86-5.98-9.71-8.95-14.55c-6.3,0-12.53,0-18.7,0c3.08,5,6.01,9.77,8.95,14.55"/>
		<path class="st0" d="M1085,333.21c-2.78-4.96-5.55-9.92-8.18-14.62c3.01-5.27,5.94-10.4,9.04-15.82
			c-2.98-5.23-6.05-10.62-9.5-16.67c-5.56,0-11.45,0-17.34,0"/>
		<path class="st0" d="M1218.01,366.12c5.66,0,11.32,0,17.24,0c3.31,5.52,6.55,10.9,9.78,16.28"/>
		<path class="st0" d="M982.48,604.07c-2.93-4.83-5.85-9.65-8.93-14.72c-5.85,0-11.97,0-18.49,0c-2.8,4.91-5.77,10.12-8.99,15.76
			c6.26,0,12.16,0,18.23,0c3.16,5.52,6.23,10.86,9.33,16.28c-2.93,5.15-5.82,10.23-8.76,15.41c-6.18,0-12.3,0-18.62,0
			c-3.25,5.31-6.48,10.57-9.77,15.93c-6.2,0-12.32,0-18.65,0c-3.1,5.48-6.19,10.93-9.31,16.45c2.74,4.9,5.44,9.72,8.14,14.55"/>
		<path class="st0" d="M935.37,750.23c-2.69,4.78-5.38,9.56-8.17,14.52c2.87,5.1,5.91,10.5,9.02,16.01
			c-2.99,5.24-5.96,10.45-9.03,15.83c2.89,5.12,5.93,10.53,9.02,16.02c-2.91,5.11-5.8,10.19-8.74,15.37c-6.18,0-12.3,0-18.63,0
			c2.64-4.74,5.24-9.38,7.83-14.03"/>
		<path class="st0" d="M1272.04,620c-2.75-4.86-5.5-9.72-8.22-14.55c-6.33,0-12.57,0-18.69,0c2.82,4.99,5.52,9.77,8.21,14.55"/>
		<path class="st0" d="M1057.29,795.26c-2.93-4.83-5.85-9.65-8.82-14.55c-6.2,0-12.55,0-18.81,0c3.32,5.44,6.52,10.66,9.72,15.9
			c-3.08,5.12-6.13,10.18-9.4,15.62c6.18,0,12.07,0,18.13,0c3.13,5.08,6.16,9.99,9.18,14.89"/>
		<path class="st0" d="M1188.57,573.24c-5.89,0-11.78,0-17.97,0c-3.15,5.13-6.38,10.4-9.66,15.76c-6.19,0-12.32,0-18.64,0
			c-3,5.26-5.97,10.47-9.19,16.11c6.26,0,12.16,0,18.23,0c3.16,5.52,6.23,10.86,9.33,16.28c-2.93,5.15-5.82,10.23-8.77,15.41
			c-6.18,0-12.3,0-18.69,0c-3.15,5.26-6.29,10.51-9.43,15.76"/>
		<path class="st0" d="M1218.01,429.85c5.66,0,11.32,0,17.24,0c3.31,5.52,6.55,10.9,9.78,16.28"/>
		<path class="st0" d="M1180.6,429.85c5.66,0,11.32,0,17.24,0c3.31,5.52,6.55,10.9,9.78,16.28"/>
		<path class="st0" d="M1085,782.1c-2.69,4.78-5.38,9.56-8.17,14.52c2.87,5.1,5.91,10.5,9.01,16c-2.91,5.11-5.8,10.19-8.74,15.37
			c-6.18,0-12.3,0-18.61,0c2.58-4.64,5.19-9.33,7.81-14.03"/>
		<path class="st0" d="M993.56,429.85c5.66,0,11.32,0,17.24,0c3.31,5.52,6.55,10.9,9.78,16.28"/>
		<path class="st0" d="M956.16,429.85c5.66,0,11.32,0,17.24,0c3.31,5.52,6.55,10.9,9.78,16.28"/>
		<path class="st0" d="M881.34,429.85c5.66,0,11.32,0,17.24,0c3.31,5.52,6.55,10.9,9.78,16.28"/>
		<path class="st0" d="M982.48,667.8c-2.99-4.86-5.98-9.71-8.95-14.55c-6.3,0-12.53,0-18.7,0c3.08,5,6.01,9.77,8.95,14.55"/>
		<path class="st0" d="M1180.6,780.37c5.77,0,11.55,0,17.36,0c3.21,5.41,6.44,10.85,9.66,16.28"/>
		<path class="st0" d="M1234.63,715.6c-2.75-4.86-5.5-9.72-8.22-14.55c-6.33,0-12.57,0-18.69,0c2.82,4.99,5.52,9.77,8.21,14.55"/>
		<path class="st0" d="M1218.01,780.37c5.77,0,11.55,0,17.36,0c3.21,5.41,6.44,10.85,9.66,16.28"/>
		<path class="st0" d="M1057.29,731.53c-2.93-4.83-5.85-9.65-8.93-14.72c-5.85,0-11.97,0-18.49,0c-2.8,4.91-5.77,10.12-8.99,15.76
			c6.26,0,12.16,0,18.23,0c3.16,5.52,6.23,10.86,9.33,16.28c-2.93,5.15-5.82,10.23-8.77,15.41c-6.18,0-12.3,0-18.62,0
			c-3.25,5.31-6.48,10.57-9.77,15.93c-6.2,0-12.32,0-18.65,0c-3.1,5.48-6.19,10.93-9.31,16.45c2.74,4.9,5.44,9.72,8.14,14.55"/>
		<path class="st0" d="M897.97,651.87c-2.78-4.96-5.55-9.92-8.18-14.62c3.01-5.27,5.94-10.4,9.04-15.82
			c-2.98-5.23-6.05-10.62-9.5-16.67c-5.56,0-11.45,0-17.34,0"/>
		<path class="st0" d="M1292.82,557.31c5.77,0,11.55,0,17.36,0c3.21,5.41,6.44,10.85,9.66,16.28"/>
		<path class="st0" d="M1076.34,382.05c-5.89,0-11.78,0-17.97,0c-3.15,5.13-6.38,10.4-9.66,15.76c-6.2,0-12.32,0-18.64,0
			c-3,5.26-5.97,10.47-9.19,16.11c6.26,0,12.16,0,18.23,0c3.16,5.52,6.23,10.86,9.33,16.28c-2.93,5.15-5.82,10.23-8.77,15.41
			c-6.18,0-12.3,0-18.69,0c-3.15,5.26-6.29,10.51-9.43,15.76"/>
		<path class="st0" d="M1057.29,572.2c-2.99-4.86-5.98-9.71-8.95-14.55c-6.3,0-12.53,0-18.7,0c3.08,5,6.01,9.77,8.95,14.55"/>
		<path class="st0" d="M1019.89,412.87c-2.93-4.83-5.85-9.65-8.82-14.55c-6.2,0-12.55,0-18.81,0c3.32,5.44,6.52,10.66,9.71,15.89
			c-3.2,5.36-6.36,10.65-9.57,16.04c2.94,4.84,5.86,9.67,8.79,14.49"/>
		<path class="st0" d="M956.16,557.31c5.66,0,11.32,0,17.24,0c3.31,5.52,6.55,10.9,9.78,16.28"/>
		<path class="st0" d="M1206.92,317.28c-2.99-4.86-5.98-9.71-8.95-14.55c-6.3,0-12.53,0-18.7,0c3.08,5,6.01,9.77,8.95,14.55"/>
		<path class="st0" d="M1206.92,412.87c-2.93-4.83-5.85-9.65-8.82-14.55c-6.2,0-12.55,0-18.81,0c3.32,5.44,6.52,10.66,9.71,15.89
			c-3.2,5.36-6.36,10.65-9.57,16.04c2.94,4.84,5.86,9.67,8.79,14.49"/>
		<path class="st0" d="M572.04,796.3c6.01,0,12.01,0,18.6,0c-3.26,5.48-6.23,10.45-9.49,15.93c6.47,0,12.37,0,18.62,0
			c-3.13,5.5-6.02,10.58-9.06,15.93c-6.2,0-12.43,0-18.67,0"/>
		<path class="st0" d="M1105.79,302.38c5.66,0,11.32,0,17.24,0c3.31,5.52,6.55,10.9,9.78,16.28"/>
		<path class="st0" d="M1244.33,412.87c-2.93-4.83-5.85-9.65-8.82-14.55c-6.2,0-12.55,0-18.81,0c3.32,5.44,6.52,10.66,9.71,15.89
			c-3.2,5.36-6.36,10.65-9.57,16.04c2.94,4.84,5.86,9.67,8.79,14.49"/>
		<path class="st0" d="M1319.15,412.87c-2.99-4.86-5.98-9.71-8.95-14.55c-6.3,0-12.53,0-18.7,0c3.08,5,6.01,9.77,8.95,14.55"/>
		<path class="st0" d="M1180.6,716.64c5.77,0,11.55,0,17.36,0c3.21,5.41,6.44,10.85,9.66,16.28"/>
		<path class="st0" d="M1094.7,731.53c-2.93-4.83-5.85-9.65-8.82-14.55c-6.2,0-12.55,0-18.81,0c3.32,5.44,6.52,10.66,9.71,15.89
			c-3.2,5.36-6.36,10.65-9.57,16.04c2.94,4.84,5.86,9.67,8.79,14.49"/>
		<path class="st0" d="M1132.11,731.53c-2.99-4.86-5.98-9.71-9.06-14.72c-5.95,0-11.95,0-18.35,0c-2.8,4.91-5.77,10.12-8.99,15.76
			c6.26,0,12.15,0,18.04,0"/>
		<path class="st0" d="M860.56,588.13c-2.75-4.86-5.5-9.72-8.32-14.72c-5.99,0-12,0-18.41,0c-3.04,4.96-6.27,10.23-9.55,15.59
			c-6.19,0-12.32,0-18.64,0c-3,5.26-5.97,10.47-9.19,16.11c6.26,0,12.16,0,18.26,0c2.88,5.07,5.66,9.98,8.44,14.89"/>
		<path class="st0" d="M749.03,589.87c-2.85,4.99-5.7,9.97-8.61,15.07c-6.17,0-12.29,0-18.68,0c3.03-5.33,5.92-10.4,8.77-15.41
			c6.28,0,12.4,0,18.52,0"/>
		<path class="st0" d="M1132.11,349.14c-2.93-4.83-5.85-9.65-8.93-14.72c-5.85,0-11.97,0-18.5,0c-2.91,5.14-5.99,10.58-9.12,16.11
			c2.74,4.9,5.44,9.72,8.14,14.55"/>
		<path class="st0" d="M1159.82,811.19c-2.75-4.86-5.5-9.72-8.32-14.72c-5.99,0-12,0-18.48,0c-2.94,4.91-6.08,10.16-9.23,15.41"/>
		<path class="st0" d="M1094.7,285.41c-2.93-4.83-5.85-9.65-8.93-14.72c-5.85,0-11.97,0-18.5,0c-2.91,5.14-5.99,10.58-9.12,16.11
			c2.74,4.9,5.44,9.72,8.14,14.55"/>
		<path class="st0" d="M636.81,781.06c-2.85,4.99-5.7,9.97-8.61,15.07c-6.17,0-12.29,0-18.68,0c3.03-5.33,5.92-10.4,8.77-15.41
			c6.28,0,12.4,0,18.52,0"/>
		<path class="st0" d="M982.48,699.66c-2.99-4.86-5.98-9.71-9.06-14.72c-5.95,0-11.95,0-18.37,0c-2.91,5.14-5.99,10.58-9.09,16.06
			c2.97,5.39,5.89,10.68,8.81,15.97"/>
		<path class="st0" d="M1169.52,412.87c-2.99-4.86-5.98-9.71-9.06-14.72c-5.95,0-11.95,0-18.37,0c-2.91,5.14-5.99,10.58-9.09,16.06
			c2.97,5.39,5.89,10.68,8.81,15.97"/>
		<path class="st0" d="M674.22,716.98c-6,0-12.01,0-18.51,0c-2.7,4.74-5.67,9.95-8.79,15.41c6.28,0,12.29,0,18.69,0
			c2.76-4.82,5.68-9.94,8.61-15.07"/>
		<path class="st0" d="M1272.04,651.87c-2.75-4.86-5.5-9.72-8.32-14.72c-5.99,0-12,0-18.41,0c-3.04,4.96-6.27,10.23-9.66,15.76
			c-5.86,0-11.75,0-17.64,0"/>
		<path class="st0" d="M711.62,653.25c-6,0-12.01,0-18.51,0c-2.7,4.74-5.67,9.95-8.79,15.41c6.28,0,12.29,0,18.68,0
			c2.76-4.82,5.68-9.94,8.61-15.07"/>
		<path class="st0" d="M758.04,540.34c-2.93-4.83-5.85-9.65-9.03-14.89c-5.86,0-12.09,0-18.33,0"/>
		<path class="st0" d="M1206.92,635.93c-2.99-4.86-5.98-9.71-9.06-14.72c-5.95,0-11.95,0-18.37,0c-2.91,5.14-5.99,10.58-9.09,16.06
			c2.97,5.39,5.89,10.68,8.81,15.97"/>
		<path class="st0" d="M1057.29,604.07c-2.99-4.86-5.98-9.71-9.06-14.72c-5.95,0-11.95,0-18.35,0c-2.8,4.91-5.77,10.12-8.99,15.76
			c6.26,0,12.15,0,18.04,0"/>
		<path class="st0" d="M1272.04,715.6c-2.75-4.86-5.5-9.72-8.32-14.72c-5.99,0-12,0-18.41,0c-3.04,4.96-6.27,10.23-9.55,15.59
			c-6.2,0-12.32,0-18.66,0c2.94-4.83,5.74-9.43,8.54-14.03"/>
		<path class="st0" d="M1206.92,476.61c-2.93-4.83-5.85-9.65-8.93-14.72c-5.85,0-11.97,0-18.5,0c-2.91,5.14-5.99,10.58-9.12,16.1
			c2.74,4.9,5.44,9.72,8.14,14.55"/>
		<path class="st0" d="M1132.11,444.74c-2.99-4.86-5.98-9.71-9.06-14.72c-5.95,0-11.95,0-18.36,0c-2.8,4.91-5.77,10.12-8.99,15.76
			c6.26,0,12.15,0,18.05,0"/>
		<path class="st0" d="M1319.15,827.13c-2.93-4.83-5.85-9.65-8.93-14.72c-5.85,0-11.97,0-18.49,0c-2.82,4.96-5.82,10.21-8.98,15.76
			c6.49,0,12.61,0,18.73,0"/>
		<path class="st0" d="M1094.7,795.26c-2.99-4.86-5.98-9.71-9.06-14.72c-5.95,0-11.95,0-18.35,0c-2.8,4.91-5.77,10.12-8.99,15.76
			c6.26,0,12.15,0,18.04,0"/>
		<path class="st0" d="M1319.15,444.74c-2.99-4.86-5.98-9.71-9.06-14.72c-5.95,0-11.95,0-18.36,0c-2.8,4.91-5.77,10.12-8.99,15.76
			c6.26,0,12.15,0,18.05,0"/>
		<path class="st0" d="M945.07,763.39c-2.99-4.86-5.98-9.71-9.06-14.72c-5.95,0-11.95,0-18.37,0c-2.91,5.14-5.99,10.58-9.09,16.06
			c2.97,5.39,5.89,10.68,8.81,15.97"/>
		<path class="st0" d="M1019.89,667.8c-2.99-4.86-5.98-9.71-9.06-14.72c-5.95,0-11.95,0-18.35,0c-2.8,4.91-5.77,10.12-8.99,15.76
			c6.26,0,12.15,0,18.04,0"/>
		<path class="st0" d="M1244.33,540.34c-2.99-4.86-5.98-9.71-9.06-14.72c-5.95,0-11.95,0-18.37,0c-2.91,5.14-5.99,10.58-9.09,16.06
			c2.97,5.39,5.89,10.68,8.81,15.97"/>
		<path class="st0" d="M1234.63,747.46c-2.75-4.86-5.5-9.72-8.32-14.72c-5.99,0-12,0-18.48,0c-2.94,4.91-6.08,10.16-9.23,15.41"/>
		<path class="st0" d="M1047.6,813.96c-2.6,4.65-5.21,9.3-7.95,14.2c-6.24,0-12.48,0-18.72,0"/>
		<path class="st0" d="M860.56,556.27c-2.75-4.86-5.5-9.72-8.61-15.24c-5.58,0-11.47,0-17.36,0"/>
		<path class="st0" d="M1206.92,511.24c-2.84,4.65-5.68,9.29-8.78,14.37c-6.23,0-12.59,0-18.95,0c3.43,5.61,6.62,10.83,9.83,16.08
			c-3.08,5.12-6.13,10.18-9.4,15.62c6.18,0,12.07,0,18.13,0c3.13,5.08,6.16,9.99,9.18,14.89"/>
		<path class="st0" d="M972.78,813.96c-2.6,4.65-5.21,9.3-7.95,14.2c-6.24,0-12.48,0-18.72,0"/>
		<path class="st0" d="M832.85,479.38c-2.84,4.65-5.68,9.29-8.57,14.03c-6.2,0-12.32,0-18.64,0c-3,5.26-5.97,10.47-9.19,16.11
			c6.26,0,12.16,0,18.26,0c2.88,5.07,5.66,9.98,8.44,14.89"/>
		<path class="st0" d="M1263.03,702.43c-2.91,4.83-5.83,9.66-8.79,14.57c3.19,5.32,6.36,10.6,9.55,15.93
			c-3.06,5.08-6.1,10.13-9.27,15.4c6.19,0,12.19,0,18.07,0c3.12,5.14,6.13,10.11,9.13,15.07"/>
		<path class="st0" d="M972.78,269.48c-2.75-4.86-5.5-9.72-8.61-15.24c-5.59,0-11.47,0-17.36,0"/>
		<path class="st0" d="M1113.75,382.05c-5.89,0-11.78,0-17.97,0c-3.15,5.13-6.38,10.4-9.87,16.11c-6.22,0-12.59,0-18.95,0
			c3.43,5.61,6.62,10.83,9.83,16.08c-3.08,5.12-6.13,10.18-9.4,15.62c6.18,0,12.07,0,18.13,0c3.13,5.08,6.16,9.99,9.18,14.89"/>
		<path class="st0" d="M1068.38,748.5c5.66,0,11.32,0,17.14,0c3.13,5.08,6.16,9.99,9.18,14.89"/>
		<path class="st0" d="M918.75,461.71c5.77,0,11.55,0,17.3,0c3.01,4.97,6.02,9.93,9.03,14.89"/>
		<path class="st0" d="M1218.01,812.23c5.77,0,11.55,0,17.3,0c3.01,4.97,6.02,9.93,9.03,14.89"/>
		<path class="st0" d="M776.74,477.64c-5.89,0-11.78,0-18.04,0c2.94,5.24,5.64,10.07,8.34,14.89"/>
		<path class="st0" d="M814.15,606.84c-2.91,4.83-5.83,9.66-8.79,14.57c3.19,5.32,6.36,10.6,9.55,15.92
			c-3.02,5.04-6.03,10.05-9.24,15.41c6.4,0,12.29,0,18.05,0c3.12,5.14,6.13,10.11,9.13,15.07"/>
		<path class="st0" d="M814.15,413.91c-5.89,0-11.78,0-18.04,0c2.94,5.24,5.64,10.07,8.34,14.89"/>
		<path class="st0" d="M881.34,397.98c5.77,0,11.55,0,17.3,0c3.01,4.97,6.02,9.93,9.03,14.89"/>
		<path class="st0" d="M843.93,366.12c5.66,0,11.32,0,17.14,0c3.13,5.08,6.16,9.99,9.18,14.89"/>
		<path class="st0" d="M956.16,397.98c5.77,0,11.55,0,17.3,0c3.01,4.97,6.02,9.93,9.03,14.89"/>
		<path class="st0" d="M795.44,543.11c-2.84,4.65-5.68,9.29-8.78,14.37c-6.23,0-12.59,0-18.95,0c3.43,5.61,6.62,10.83,9.82,16.06
			c-3.05,5.08-6.05,10.1-9.27,15.46c6.4,0,12.29,0,18.05,0c3.12,5.14,6.13,10.11,9.13,15.07"/>
		<path class="st0" d="M1255.41,429.85c5.66,0,11.32,0,17.14,0c3.13,5.08,6.16,9.99,9.18,14.89"/>
		<path class="st0" d="M1143.19,302.38c5.66,0,11.32,0,17.14,0c3.13,5.08,6.16,9.99,9.18,14.89"/>
		<path class="st0" d="M1030.97,493.58c5.66,0,11.32,0,17.14,0c3.13,5.08,6.16,9.99,9.18,14.89"/>
		<path class="st0" d="M843.93,461.71c5.77,0,11.55,0,17.3,0c3.01,4.97,6.02,9.93,9.03,14.89"/>
		<path class="st0" d="M1218.01,493.58c5.66,0,11.32,0,17.14,0c3.13,5.08,6.16,9.99,9.18,14.89"/>
		<path class="st0" d="M881.34,525.44c5.77,0,11.55,0,17.3,0c3.01,4.97,6.02,9.93,9.03,14.89"/>
		<path class="st0" d="M1105.79,684.77c5.66,0,11.32,0,17.14,0c3.13,5.08,6.16,9.99,9.18,14.89"/>
		<path class="st0" d="M918.75,334.25c5.77,0,11.55,0,17.3,0c3.01,4.97,6.02,9.93,9.03,14.89"/>
		<path class="st0" d="M881.34,302.38c5.66,0,11.32,0,17.14,0c3.13,5.08,6.16,9.99,9.18,14.89"/>
		<path class="st0" d="M1282.43,254.93c-3.01-5.03-6.01-10.07-9.45-15.83c-3.28,5.63-6.18,10.61-9.15,15.71
			c2.66,4.75,5.43,9.71,8.21,14.67"/>
		<path class="st0" d="M1170.21,254.93c-3.01-5.03-6.01-10.07-9.46-15.85c-3.19,5.51-6,10.36-8.88,15.34c-6.13,0-12.25,0-18.64,0
			c-3.15,5.26-6.29,10.51-9.43,15.76"/>
		<path class="st0" d="M1132.8,254.93c-3.01-5.03-6.01-10.07-9.46-15.85c-3.19,5.51-6,10.36-8.88,15.34c-6.13,0-12.25,0-18.64,0
			c-3.15,5.26-6.29,10.51-9.43,15.76"/>
		<path class="st0" d="M1095.39,254.93c-3.01-5.03-6.01-10.07-9.46-15.85c-3.19,5.51-6,10.36-9.08,15.68c-6.17,0-12.54,0-18.81,0
			c3.12,5.62,6.03,10.86,8.95,16.11"/>
		<path class="st0" d="M1020.58,254.93c-3.01-5.03-6.01-10.07-9.45-15.83c-3.28,5.63-6.18,10.61-9.15,15.71
			c2.66,4.75,5.43,9.71,8.21,14.67"/>
		<path class="st0" d="M1206.92,253.55c-2.79-4.56-5.58-9.13-8.8-14.39c-3.24,5.56-6.14,10.55-9.12,15.66
			c2.92,5.18,5.96,10.58,9.06,16.08c-2.91,5.11-5.8,10.19-8.74,15.37c-6.18,0-12.3,0-18.64,0c2.7-4.83,5.27-9.43,7.84-14.03"/>
		<path class="st0" d="M1225.63,253.55c-2.79-4.56-5.58-9.13-8.81-14.42c-3.12,5.41-5.88,10.21-8.8,15.28c6.42,0,12.54,0,18.69,0
			c2.8-4.87,5.54-9.62,8.28-14.37"/>
		<path class="st0" d="M599.75,589.17c-6.23,0-12.47,0-18.7,0"/>
		<path class="st0" d="M590.74,318.32c-6.23,0-12.47,0-18.7,0"/>
		<path class="st0" d="M665.56,477.64c-6.23,0-12.47,0-18.7,0"/>
		<path class="st0" d="M702.96,477.64c-6.23,0-12.47,0-18.7,0"/>
		<path class="st0" d="M702.96,541.38c-6.23,0-12.47,0-18.7,0"/>
		<path class="st0" d="M590.74,477.64c-6.23,0-12.47,0-18.7,0"/>
		<path class="st0" d="M599.75,334.25c-6.23,0-12.47,0-18.7,0"/>
		<path class="st0" d="M590.74,605.11c-6.23,0-12.47,0-18.7,0"/>
		<path class="st0" d="M590.74,445.78c-6.23,0-12.47,0-18.7,0"/>
		<path class="st0" d="M665.56,541.38c-6.23,0-12.47,0-18.7,0"/>
		<path class="st0" d="M628.15,605.11c-6.23,0-12.47,0-18.7,0"/>
		<path class="st0" d="M665.56,605.11c-6.23,0-12.47,0-18.7,0"/>
		<path class="st0" d="M628.15,541.38c-6.23,0-12.47,0-18.7,0"/>
		<path class="st0" d="M590.74,764.43c-6.23,0-12.47,0-18.7,0"/>
		<path class="st0" d="M628.15,668.84c-6.23,0-12.47,0-18.7,0"/>
		<path class="st0" d="M590.74,541.38c-6.23,0-12.47,0-18.7,0"/>
		<path class="st0" d="M628.15,445.78c-6.23,0-12.47,0-18.7,0"/>
		<path class="st0" d="M637.16,397.98c-6.23,0-12.47,0-18.7,0"/>
		<path class="st0" d="M599.75,397.98c-6.23,0-12.47,0-18.7,0"/>
		<path class="st0" d="M590.74,668.84c-6.23,0-12.47,0-18.7,0"/>
		<path class="st0" d="M599.75,302.38c-6.23,0-12.47,0-18.7,0"/>
		<path class="st0" d="M711.97,525.44c-6.23,0-12.47,0-18.7,0"/>
		<path class="st0" d="M637.16,589.17c-6.23,0-12.47,0-18.7,0"/>
		<path class="st0" d="M674.56,525.44c-6.23,0-12.47,0-18.7,0"/>
		<path class="st0" d="M637.16,525.44c-6.23,0-12.47,0-18.7,0"/>
		<path class="st0" d="M599.75,716.64c-6.23,0-12.47,0-18.7,0"/>
		<path class="st0" d="M599.75,493.58c-6.23,0-12.47,0-18.7,0"/>
		<path class="st0" d="M590.74,413.91c-6.23,0-12.47,0-18.7,0"/>
		<path class="st0" d="M628.15,413.91c-6.23,0-12.47,0-18.7,0"/>
		<path class="st0" d="M665.56,413.91c-6.23,0-12.47,0-18.7,0"/>
		<path class="st0" d="M599.75,525.44c-6.23,0-12.47,0-18.7,0"/>
		<path class="st0" d="M590.74,732.57c-6.23,0-12.47,0-18.7,0"/>
		<path class="st0" d="M637.16,493.58c-6.23,0-12.47,0-18.7,0"/>
		<path class="st0" d="M674.56,493.58c-6.23,0-12.47,0-18.7,0"/>
		<path class="st0" d="M711.97,493.58c-6.23,0-12.47,0-18.7,0"/>
		<path class="st0" d="M674.56,621.04c-6.23,0-12.47,0-18.7,0"/>
		<path class="st0" d="M628.15,382.05c-6.23,0-12.47,0-18.7,0"/>
		<path class="st0" d="M590.74,382.05c-6.23,0-12.47,0-18.7,0"/>
		<path class="st0" d="M637.16,621.04c-6.23,0-12.47,0-18.7,0"/>
		<path class="st0" d="M674.56,589.17c-6.23,0-12.47,0-18.7,0"/>
		<path class="st0" d="M665.56,445.78c-6.23,0-12.47,0-18.7,0"/>
		<path class="st0" d="M599.75,621.04c-6.23,0-12.47,0-18.7,0"/>
		<path class="st0" d="M590.74,573.24c-6.23,0-12.47,0-18.7,0"/>
		<path class="st0" d="M628.15,573.24c-6.23,0-12.47,0-18.7,0"/>
		<path class="st0" d="M665.56,573.24c-6.23,0-12.47,0-18.7,0"/>
		<path class="st0" d="M674.56,461.71c-6.23,0-12.47,0-18.7,0"/>
		<path class="st0" d="M637.16,461.71c-6.23,0-12.47,0-18.7,0"/>
		<path class="st0" d="M590.74,636.97c-6.23,0-12.47,0-18.7,0"/>
		<path class="st0" d="M628.15,636.97c-6.23,0-12.47,0-18.7,0"/>
		<path class="st0" d="M665.56,636.97c-6.23,0-12.47,0-18.7,0"/>
		<path class="st0" d="M702.96,573.24c-6.23,0-12.47,0-18.7,0"/>
		<path class="st0" d="M599.75,461.71c-6.23,0-12.47,0-18.7,0"/>
		<path class="st0" d="M637.16,652.9c-6.23,0-12.47,0-18.7,0"/>
		<path class="st0" d="M599.75,652.9c-6.23,0-12.47,0-18.7,0"/>
		<path class="st0" d="M599.75,429.85c-6.23,0-12.47,0-18.7,0"/>
		<path class="st0" d="M637.16,429.85c-6.23,0-12.47,0-18.7,0"/>
		<path class="st0" d="M628.15,477.64c-6.23,0-12.47,0-18.7,0"/>
		<path class="st0" d="M674.56,429.85c-6.23,0-12.47,0-18.7,0"/>
		<path class="st0" d="M637.16,366.12c-6.23,0-12.47,0-18.7,0"/>
		<path class="st0" d="M599.75,366.12c-6.23,0-12.47,0-18.7,0"/>
		<path class="st0" d="M590.74,286.45c-6.23,0-12.47,0-18.7,0"/>
		<path class="st0" d="M599.75,684.77c-6.23,0-12.47,0-18.7,0"/>
		<path class="st0" d="M637.16,684.77c-6.23,0-12.47,0-18.7,0"/>
		<path class="st0" d="M599.75,748.5c-6.23,0-12.47,0-18.7,0"/>
		<path class="st0" d="M711.97,557.31c-6.23,0-12.47,0-18.7,0"/>
		<path class="st0" d="M674.56,557.31c-6.23,0-12.47,0-18.7,0"/>
		<path class="st0" d="M590.74,350.18c-6.23,0-12.47,0-18.7,0"/>
		<path class="st0" d="M628.15,350.18c-6.23,0-12.47,0-18.7,0"/>
		<path class="st0" d="M637.16,557.31c-6.23,0-12.47,0-18.7,0"/>
		<path class="st0" d="M599.75,557.31c-6.23,0-12.47,0-18.7,0"/>
		<path class="st0" d="M590.74,509.51c-6.23,0-12.47,0-18.7,0"/>
		<path class="st0" d="M628.15,509.51c-6.23,0-12.47,0-18.7,0"/>
		<path class="st0" d="M665.56,509.51c-6.23,0-12.47,0-18.7,0"/>
		<path class="st0" d="M702.96,828.16c-6.23,0-12.47,0-18.7,0"/>
		<path class="st0" d="M628.15,700.7c-6.23,0-12.47,0-18.7,0"/>
		<path class="st0" d="M590.74,700.7c-6.23,0-12.47,0-18.7,0"/>
		<path class="st0" d="M702.96,509.51c-6.23,0-12.47,0-18.7,0"/>
		<path class="st0" d="M1300.79,318.32c-6.13,0-12.26,0-18.4,0c3.22,5.79,6.13,11.03,9.04,16.28"/>
		<path class="st0" d="M889.31,700.7c-6.13,0-12.26,0-18.4,0c3.22,5.79,6.13,11.03,9.04,16.28"/>
		<path class="st0" d="M1001.53,764.43c-6.13,0-12.26,0-18.4,0c3.22,5.79,6.13,11.03,9.04,16.28"/>
		<path class="st0" d="M1197.23,431.58c-2.6,4.65-5.21,9.3-8.05,14.37c-6.27,0-12.63,0-18.91,0c3.12,5.62,6.03,10.86,8.95,16.11"/>
		<path class="st0" d="M777.09,509.51c-6.13,0-12.26,0-18.4,0c3.22,5.79,6.13,11.03,9.04,16.28"/>
		<path class="st0" d="M851.9,509.51c-6.13,0-12.26,0-18.4,0c3.22,5.79,6.13,11.03,9.04,16.28"/>
		<path class="st0" d="M972.78,559.04c-2.6,4.65-5.21,9.3-8.05,14.37c-6.27,0-12.63,0-18.91,0c3.12,5.62,6.03,10.86,8.95,16.11"/>
		<path class="st0" d="M1085,750.23c-2.6,4.65-5.21,9.3-8.05,14.37c-6.27,0-12.63,0-18.91,0c3.12,5.62,6.03,10.86,8.95,16.11"/>
		<path class="st0" d="M972.78,431.58c-2.6,4.65-5.21,9.3-8.05,14.37c-6.27,0-12.63,0-18.91,0c3.12,5.62,6.03,10.86,8.95,16.11"/>
		<path class="st0" d="M897.97,431.58c-2.6,4.65-5.21,9.3-8.05,14.37c-6.27,0-12.63,0-18.91,0c3.12,5.62,6.03,10.86,8.95,16.11"/>
		<path class="st0" d="M1038.94,382.05c-6.13,0-12.26,0-18.4,0c3.22,5.79,6.13,11.03,9.04,16.28"/>
		<path class="st0" d="M1234.63,495.31c-2.6,4.65-5.21,9.3-8.05,14.37c-6.27,0-12.63,0-18.91,0c3.12,5.62,6.03,10.86,8.95,16.11"/>
		<path class="st0" d="M897.97,304.12c-2.6,4.65-5.21,9.3-8.05,14.37c-6.27,0-12.63,0-18.91,0c3.12,5.62,6.03,10.86,8.95,16.11"/>
		<path class="st0" d="M935.37,367.85c-2.6,4.65-5.21,9.3-8.05,14.37c-6.27,0-12.63,0-18.91,0c3.12,5.62,6.03,10.86,8.95,16.11"/>
		<path class="st0" d="M1010.19,495.31c-2.6,4.65-5.21,9.3-8.05,14.37c-6.27,0-12.63,0-18.91,0c3.12,5.62,6.03,10.86,8.95,16.11"/>
		<path class="st0" d="M860.56,367.85c-2.6,4.65-5.21,9.3-8.05,14.37c-6.27,0-12.63,0-18.91,0c3.12,5.62,6.03,10.86,8.95,16.11"/>
		<path class="st0" d="M1085,622.77c-2.6,4.65-5.21,9.3-8.05,14.37c-6.27,0-12.63,0-18.91,0c3.12,5.62,6.03,10.86,8.95,16.11"/>
		<path class="st0" d="M935.37,495.31c-2.6,4.65-5.21,9.3-8.05,14.37c-6.27,0-12.63,0-18.91,0c3.12,5.62,6.03,10.86,8.95,16.11"/>
		<path class="st0" d="M1281.74,798.03c-2.84,4.65-5.68,9.29-8.78,14.37c-6.23,0-12.59,0-18.98,0c3.32,5.39,6.39,10.38,9.59,15.59
			c-6.07,0-11.96,0-18.07,0c2.7-4.83,5.27-9.43,7.84-14.03"/>
		<path class="st0" d="M814.49,445.78c-6.13,0-12.26,0-18.4,0c3.22,5.79,6.13,11.03,9.04,16.28"/>
		<path class="st0" d="M814.49,573.24c-6.13,0-12.26,0-18.4,0c3.22,5.79,6.13,11.03,9.04,16.28"/>
		<path class="st0" d="M926.37,350.18c-5.77,0-11.55,0-17.62,0c-3.15,5.13-6.38,10.4-9.87,16.11c-6.22,0-12.59,0-18.95,0
			c3.43,5.61,6.62,10.83,9.82,16.06c-3.2,5.36-6.36,10.65-9.56,16.01c3.18,5.31,6.35,10.59,9.53,15.89
			c-3.18,5.32-6.33,10.61-9.55,15.99c2.94,4.84,5.86,9.67,8.79,14.49"/>
		<path class="st0" d="M889.31,573.24c-6.13,0-12.26,0-18.4,0c3.22,5.79,6.13,11.03,9.04,16.28"/>
		<path class="st0" d="M1122.41,304.12c-2.6,4.65-5.21,9.3-8.05,14.37c-6.27,0-12.63,0-18.91,0c3.12,5.62,6.03,10.86,8.95,16.11"/>
		<path class="st0" d="M1076.34,445.78c-6.13,0-12.26,0-18.4,0c3.22,5.79,6.13,11.03,9.04,16.28"/>
		<path class="st0" d="M1122.41,686.5c-2.6,4.65-5.21,9.3-8.05,14.37c-6.27,0-12.63,0-18.91,0c3.12,5.62,6.03,10.86,8.95,16.11"/>
		<path class="st0" d="M851.9,636.97c-6.13,0-12.26,0-18.4,0c3.22,5.79,6.13,11.03,9.04,16.28"/>
		<path class="st0" d="M1047.6,686.5c-2.6,4.65-5.21,9.3-8.05,14.37c-6.27,0-12.63,0-18.91,0c3.12,5.62,6.03,10.86,8.95,16.11"/>
		<path class="st0" d="M1151.16,573.24c-6.13,0-12.26,0-18.4,0c3.22,5.79,6.13,11.03,9.04,16.28"/>
		<path class="st0" d="M926.72,636.97c-6.13,0-12.26,0-18.4,0c3.22,5.79,6.13,11.03,9.04,16.28"/>
		<path class="st0" d="M1206.92,670.57c-2.84,4.65-5.68,9.29-8.78,14.37c-6.23,0-12.59,0-18.95,0c3.43,5.61,6.62,10.83,9.82,16.06
			c-3.2,5.36-6.36,10.65-9.56,16.01c3.18,5.31,6.35,10.59,9.53,15.89c-3.18,5.32-6.33,10.61-9.53,15.97
			c3.18,5.31,6.35,10.59,9.53,15.89c-3.18,5.32-6.33,10.61-9.53,15.97c3.18,5.31,6.35,10.59,9.53,15.89
			c-3.18,5.32-6.33,10.61-9.54,15.97c3.05,5.08,6.09,10.14,9.33,15.55c-6.21,0-12.22,0-18.22,0"/>
		<path class="st0" d="M1038.59,286.45c-6.01,0-12.03,0-18.11,0c3.01,5.34,5.71,10.12,8.41,14.89"/>
		<path class="st0" d="M1122.41,397.98c-6.01,0-12.03,0-18.17,0c3.29,5.35,6.23,10.12,9.16,14.89"/>
		<path class="st0" d="M1159.82,304.12c-2.6,4.65-5.21,9.3-7.86,14.03c-6.22,0-12.34,0-18.73,0c-3.15,5.26-6.29,10.51-9.43,15.76"/>
		<path class="st0" d="M1300.44,636.97c-6.01,0-12.03,0-18.1,0c3.01,5.34,5.71,10.12,8.41,14.89"/>
		<path class="st0" d="M1263.38,796.3c-5.89,0-11.78,0-18.03,0c-3.04,5.09-6.19,10.34-9.33,15.59"/>
		<path class="st0" d="M851.55,605.11c-6.01,0-12.03,0-18.1,0c3.01,5.34,5.71,10.12,8.41,14.89"/>
		<path class="st0" d="M1122.41,748.5c-6.01,0-12.03,0-18.17,0c3.29,5.35,6.23,10.12,9.16,14.89"/>
		<path class="st0" d="M1085,812.23c-6.01,0-12.03,0-18.17,0c3.29,5.35,6.23,10.12,9.16,14.89"/>
		<path class="st0" d="M851.55,477.64c-6.01,0-12.03,0-18.1,0c3.01,5.34,5.71,10.12,8.41,14.89"/>
		<path class="st0" d="M1197.23,270.52c-6.01,0-12.03,0-18.17,0c3.29,5.35,6.23,10.12,9.16,14.89"/>
		<path class="st0" d="M1272.04,431.58c-2.6,4.65-5.21,9.3-7.86,14.03c-6.22,0-12.35,0-18.73,0c-3.15,5.26-6.29,10.51-9.43,15.76"/>
		<path class="st0" d="M1122.41,622.77c-2.6,4.65-5.21,9.3-7.86,14.03c-6.22,0-12.35,0-18.73,0c-3.15,5.26-6.29,10.51-9.43,15.76"/>
		<path class="st0" d="M1122.41,461.71c-6.01,0-12.03,0-18.17,0c3.29,5.35,6.23,10.12,9.16,14.89"/>
		<path class="st0" d="M1309.45,461.71c-6.01,0-12.03,0-18.17,0c3.29,5.35,6.23,10.12,9.16,14.89"/>
		<path class="st0" d="M1085,493.58c-6.01,0-12.03,0-18.17,0c3.29,5.35,6.23,10.12,9.16,14.89"/>
		<path class="st0" d="M1234.63,431.58c-2.6,4.65-5.21,9.3-7.86,14.03c-6.22,0-12.34,0-18.73,0c-3.15,5.26-6.29,10.51-9.43,15.76"/>
		<path class="st0" d="M1263.03,732.57c-6.01,0-12.03,0-18.1,0c3.01,5.34,5.71,10.12,8.41,14.89"/>
		<path class="st0" d="M1001.53,254.59c-5.89,0-11.78,0-17.97,0c-3.15,5.13-6.38,10.4-9.66,15.76c-6.2,0-12.32,0-18.66,0
			c2.94-4.83,5.74-9.43,8.54-14.03"/>
		<path class="st0" d="M1038.94,318.32c-5.89,0-11.78,0-17.97,0c-3.15,5.13-6.38,10.4-9.66,15.76c-6.2,0-12.32,0-18.66,0
			c2.94-4.83,5.74-9.43,8.54-14.03"/>
		<path class="st0" d="M888.96,509.51c-5.77,0-11.55,0-17.62,0c-3.15,5.13-6.38,10.4-9.66,15.76c-6.19,0-12.32,0-18.65,0
			c-3.1,5.48-6.19,10.93-9.31,16.45c2.74,4.9,5.44,9.72,8.14,14.55"/>
		<path class="st0" d="M1047.6,621.04c-6.01,0-12.03,0-18.17,0c3.29,5.35,6.23,10.12,9.16,14.89"/>
		<path class="st0" d="M1047.6,495.31c-2.6,4.65-5.21,9.3-7.86,14.03c-6.22,0-12.34,0-18.73,0c-3.15,5.26-6.29,10.51-9.43,15.76"/>
		<path class="st0" d="M935.37,812.23c-6.01,0-12.03,0-18.17,0c3.29,5.35,6.23,10.12,9.16,14.89"/>
		<path class="st0" d="M1197.23,589.17c-6.01,0-12.03,0-18.17,0c3.29,5.35,6.23,10.12,9.16,14.89"/>
		<path class="st0" d="M1234.63,367.85c-2.6,4.65-5.21,9.3-7.86,14.03c-6.22,0-12.34,0-18.73,0c-3.15,5.26-6.29,10.51-9.43,15.76"/>
		<path class="st0" d="M935.72,240.04c-2.74,4.75-5.48,9.51-8.28,14.37c-6.15,0-12.27,0-18.66,0c-3.15,5.26-6.29,10.51-9.43,15.76"
			/>
		<path class="st0" d="M814.15,541.38c-6.01,0-12.03,0-18.1,0c3.01,5.34,5.71,10.12,8.41,14.89"/>
		<path class="st0" d="M1234.63,589.17c-6.01,0-12.03,0-18.17,0c3.29,5.35,6.23,10.12,9.16,14.89"/>
		<path class="st0" d="M1188.57,254.59c-5.89,0-11.78,0-18.03,0c-3.04,5.09-6.19,10.34-9.33,15.59"/>
		<path class="st0" d="M1263.38,382.05c-5.89,0-11.78,0-18.03,0c-3.04,5.09-6.19,10.34-9.33,15.59"/>
		<path class="st0" d="M888.96,541.38c-6.01,0-12.03,0-18.1,0c3.01,5.34,5.71,10.12,8.41,14.89"/>
		<path class="st0" d="M1010.19,684.77c-6.01,0-12.03,0-18.17,0c3.29,5.35,6.23,10.12,9.16,14.89"/>
		<path class="st0" d="M1225.63,668.84c-6.01,0-12.03,0-18.1,0c3.01,5.34,5.71,10.12,8.41,14.89"/>
		<path class="st0" d="M1263.03,668.84c-6.01,0-12.03,0-18.1,0c3.01,5.34,5.71,10.12,8.41,14.89"/>
		<path class="st0" d="M935.37,716.64c-6.01,0-12.03,0-18.17,0c3.29,5.35,6.23,10.12,9.16,14.89"/>
		<path class="st0" d="M1010.19,431.58c-2.6,4.65-5.21,9.3-7.86,14.03c-6.22,0-12.35,0-18.73,0c-3.15,5.26-6.29,10.51-9.43,15.76"/>
		<path class="st0" d="M1197.23,652.9c-5.77,0-11.55,0-17.62,0c-2.9,5.08-5.87,10.3-9.09,15.93c6.26,0,12.15,0,18.04,0"/>
		<path class="st0" d="M1300.44,541.38c-5.77,0-11.55,0-17.69,0c-3.04,5.09-6.19,10.34-9.33,15.59"/>
		<path class="st0" d="M972.78,716.64c-5.77,0-11.55,0-17.63,0c-3.01,5.31-6.09,10.76-9.19,16.24c2.97,5.39,5.89,10.68,8.81,15.97"
			/>
		<path class="st0" d="M972.78,748.5c-5.77,0-11.55,0-17.62,0c-2.9,5.08-5.87,10.29-9.09,15.93c6.26,0,12.15,0,18.04,0"/>
		<path class="st0" d="M581.74,240.04c2.75,4.75,5.5,9.49,8.43,14.55c-6.11,0-12.12,0-18.12,0"/>
		<path class="st0" d="M963.78,382.05c-5.77,0-11.55,0-17.69,0c-3.04,5.09-6.19,10.34-9.33,15.59"/>
		<path class="st0" d="M1159.82,429.85c-5.77,0-11.55,0-17.62,0c-2.9,5.08-5.87,10.29-9.09,15.93c6.26,0,12.15,0,18.05,0"/>
		<path class="st0" d="M785.75,525.44c-5.77,0-11.55,0-17.62,0c-2.9,5.08-5.87,10.29-9.09,15.93c6.26,0,12.15,0,18.04,0"/>
		<path class="st0" d="M935.37,780.37c-5.77,0-11.55,0-17.62,0c-2.9,5.08-5.87,10.29-9.09,15.93c6.26,0,12.15,0,18.04,0"/>
		<path class="st0" d="M1300.44,605.11c-5.77,0-11.55,0-17.62,0c-3.15,5.13-6.38,10.4-9.66,15.76c-6.2,0-12.32,0-18.66,0
			c2.94-4.83,5.74-9.43,8.54-14.03"/>
		<path class="st0" d="M1225.63,764.43c-5.77,0-11.55,0-17.69,0c-3.04,5.09-6.19,10.34-9.33,15.59"/>
		<path class="st0" d="M963.78,413.91c-5.77,0-11.55,0-17.62,0c-3.15,5.13-6.38,10.4-9.77,15.93c-5.86,0-11.75,0-17.64,0"/>
		<path class="st0" d="M1188.22,764.43c-5.77,0-11.55,0-17.69,0c-3.04,5.09-6.19,10.34-9.33,15.59"/>
		<path class="st0" d="M1300.44,573.24c-5.77,0-11.55,0-17.69,0c-3.04,5.09-6.19,10.34-9.33,15.59"/>
		<path class="st0" d="M1188.22,732.57c-5.77,0-11.55,0-17.69,0c-3.04,5.09-6.19,10.34-9.33,15.59"/>
		<path class="st0" d="M1234.63,557.31c-5.77,0-11.55,0-17.62,0c-2.9,5.08-5.87,10.29-9.09,15.93c6.26,0,12.15,0,18.05,0"/>
		<path class="st0" d="M1085,461.71c-5.77,0-11.55,0-17.62,0c-2.9,5.08-5.87,10.29-9.09,15.93c6.26,0,12.15,0,18.04,0"/>
		<path class="st0" d="M823.15,461.71c-5.77,0-11.55,0-17.63,0c-3.01,5.31-6.09,10.76-9.19,16.24c2.97,5.39,5.89,10.68,8.81,15.97"
			/>
		<path class="st0" d="M926.37,477.64c-5.77,0-11.55,0-17.62,0c-3.15,5.13-6.38,10.4-9.77,15.93c-5.86,0-11.75,0-17.64,0"/>
		<path class="st0" d="M1225.63,796.3c-5.77,0-11.55,0-17.69,0c-3.04,5.09-6.19,10.34-9.33,15.59"/>
		<path class="st0" d="M1188.22,796.3c-5.77,0-11.55,0-17.62,0c-3.15,5.13-6.38,10.4-9.77,15.93c-5.86,0-11.75,0-17.64,0"/>
		<path class="st0" d="M926.37,445.78c-5.77,0-11.55,0-17.69,0c-3.04,5.09-6.19,10.34-9.33,15.59"/>
		<path class="st0" d="M814.49,477.64c-5.77-0.12-11.55-0.23-17.32-0.35"/>
		<path class="st0" d="M1290.74,463.44c-2.57,4.6-5.14,9.2-7.84,14.03c6.34,0,12.46,0,18.63,0c2.91-5.09,5.75-10.08,8.75-15.33
			c-3-5.36-6.08-10.85-9-16.05c2.78-4.95,5.47-9.73,8.16-14.51"/>
		<path class="st0" d="M1253.34,463.44c-2.57,4.6-5.14,9.2-7.84,14.03c6.34,0,12.46,0,18.69,0c2.65-4.73,5.25-9.38,7.86-14.03"/>
		<path class="st0" d="M1197.23,559.04c-2.69,4.78-5.38,9.56-8.17,14.52c2.87,5.1,5.91,10.5,9.01,16c-2.91,5.11-5.8,10.19-8.64,15.2
			c-6.17,0-12.17,0-18.17,0"/>
		<path class="st0" d="M1234.63,527.17c-2.69,4.78-5.38,9.56-8.17,14.52c2.87,5.1,5.91,10.5,9.02,16.01
			c-2.99,5.24-5.96,10.45-9.03,15.83c2.89,5.12,5.93,10.53,9.02,16.02c-2.91,5.11-5.8,10.19-8.64,15.2c-6.17,0-12.17,0-18.17,0"/>
		<path class="st0" d="M1122.41,431.58c-2.69,4.78-5.38,9.56-8.17,14.52c2.87,5.1,5.91,10.5,9.01,16c-2.91,5.11-5.8,10.19-8.64,15.2
			c-6.17,0-12.17,0-18.17,0"/>
		<path class="st0" d="M1028.89,622.77c-2.57,4.6-5.14,9.2-7.84,14.03c6.34,0,12.46,0,18.63,0c2.91-5.09,5.75-10.08,8.75-15.33
			c-3-5.36-6.08-10.86-9-16.05c2.78-4.95,5.47-9.73,8.16-14.51"/>
		<path class="st0" d="M991.49,590.91c-2.57,4.6-5.14,9.2-7.84,14.03c6.34,0,12.46,0,18.68,0c2.65-4.73,5.25-9.38,7.86-14.03"/>
		<path class="st0" d="M1010.19,622.77c-2.6,4.65-5.21,9.3-7.76,13.85c-6.21,0-12.21,0-18.22,0"/>
		<path class="st0" d="M1141.11,654.64c-2.57,4.6-5.14,9.2-7.84,14.03c6.34,0,12.46,0,18.69,0c2.65-4.73,5.25-9.38,7.86-14.03"/>
		<path class="st0" d="M1253.34,527.17c-2.57,4.6-5.14,9.2-7.84,14.03c6.34,0,12.46,0,18.68,0c2.65-4.73,5.25-9.38,7.86-14.03"/>
		<path class="st0" d="M972.78,654.64c-2.6,4.65-5.21,9.3-7.76,13.85c-6.21,0-12.21,0-18.22,0"/>
		<path class="st0" d="M1066.3,527.17c-2.57,4.6-5.14,9.2-7.84,14.03c6.34,0,12.46,0,18.68,0c2.65-4.73,5.25-9.38,7.86-14.03"/>
		<path class="st0" d="M1028.89,527.17c-2.57,4.6-5.14,9.2-7.84,14.03c6.34,0,12.46,0,18.68,0c2.65-4.73,5.25-9.38,7.86-14.03"/>
		<path class="st0" d="M1103.71,750.23c-2.57,4.6-5.14,9.2-7.84,14.03c6.34,0,12.46,0,18.63,0c2.91-5.09,5.75-10.08,8.75-15.33
			c-3-5.36-6.08-10.85-9-16.05c2.78-4.95,5.47-9.73,8.16-14.51"/>
		<path class="st0" d="M862.29,240.04c2.83,4.88,5.67,9.76,8.45,14.55c6.33,0,12.46,0,18.68,0c-2.93-5.05-5.68-9.8-8.42-14.55"/>
		<path class="st0" d="M767.04,559.04c-2.57,4.6-5.14,9.2-7.94,14.2c6.08,0,11.86,0,17.63,0"/>
		<path class="st0" d="M991.49,686.5c-2.57,4.6-5.14,9.2-7.84,14.03c6.34,0,12.46,0,18.63,0c2.91-5.09,5.75-10.08,8.75-15.33
			c-3-5.36-6.08-10.86-9-16.05c2.78-4.95,5.47-9.73,8.16-14.51"/>
		<path class="st0" d="M1309.45,399.71c-2.6,4.65-5.21,9.3-7.76,13.85c-6.21,0-12.21,0-18.22,0"/>
		<path class="st0" d="M1225.97,541.38c-5.77-0.12-11.55-0.23-17.32-0.35"/>
		<path class="st0" d="M1188.57,636.97c-5.77-0.12-11.55-0.23-17.32-0.35"/>
		<path class="st0" d="M1141.11,335.98c-2.57,4.6-5.14,9.2-7.84,14.03c6.34,0,12.46,0,18.69,0c2.65-4.73,5.25-9.38,7.86-14.03"/>
		<path class="st0" d="M1141.11,718.37c-2.57,4.6-5.14,9.2-7.84,14.03c6.34,0,12.46,0,18.68,0c2.65-4.73,5.25-9.38,7.86-14.03"/>
		<path class="st0" d="M1263.38,254.59c-5.77-0.12-11.55-0.23-17.32-0.35"/>
		<path class="st0" d="M1141.11,686.5c-2.57,4.6-5.14,9.2-7.84,14.03c6.34,0,12.46,0,18.69,0c2.65-4.73,5.25-9.38,7.86-14.03"/>
		<path class="st0" d="M1178.52,367.85c-2.57,4.6-5.14,9.2-7.84,14.03c6.34,0,12.46,0,18.69,0c2.65-4.73,5.25-9.38,7.86-14.03"/>
		<path class="st0" d="M1159.82,367.85c-2.6,4.65-5.21,9.3-7.76,13.85c-6.21,0-12.21,0-18.22,0"/>
		<path class="st0" d="M1178.52,335.98c-2.57,4.6-5.14,9.2-7.84,14.03c6.34,0,12.46,0,18.69,0c2.65-4.73,5.25-9.38,7.86-14.03"/>
		<path class="st0" d="M964.12,732.57c-5.77-0.12-11.55-0.23-17.32-0.35"/>
		<path class="st0" d="M1113.75,509.51c-5.77-0.12-11.55-0.23-17.32-0.35"/>
		<path class="st0" d="M1151.16,413.91c-5.77-0.12-11.55-0.23-17.32-0.35"/>
		<path class="st0" d="M851.55,543.11c-2.8,4.6-5.6,9.2-8.54,14.03c6.35,0,12.46,0,18.67,0c2.89-4.73,5.73-9.38,8.57-14.03"/>
		<path class="st0" d="M1047.6,559.04c-2.6,4.65-5.21,9.3-7.76,13.85c-6.21,0-12.21,0-18.22,0"/>
		<path class="st0" d="M787.48,240.04c2.83,4.88,5.67,9.76,8.45,14.55c6.33,0,12.46,0,18.68,0c-2.93-5.05-5.68-9.8-8.42-14.55"/>
		<path class="st0" d="M916.67,272.25c-2.57,4.6-5.14,9.2-7.84,14.03c6.34,0,12.46,0,18.68,0c2.65-4.73,5.25-9.38,7.86-14.03"/>
		<path class="st0" d="M926.72,764.43c-5.77-0.12-11.55-0.23-17.32-0.35"/>
		<path class="st0" d="M1066.3,559.04c-2.57,4.6-5.14,9.2-7.84,14.03c6.34,0,12.46,0,18.69,0c2.65-4.73,5.25-9.38,7.86-14.03"/>
		<path class="st0" d="M712.66,240.04c2.83,4.88,5.67,9.76,8.45,14.55c6.33,0,12.46,0,18.68,0c-2.93-5.05-5.68-9.8-8.42-14.55"/>
		<path class="st0" d="M1253.34,495.31c-2.57,4.6-5.14,9.2-7.84,14.03c6.34,0,12.46,0,18.69,0c2.65-4.73,5.25-9.38,7.86-14.03"/>
		<path class="st0" d="M1234.63,272.25c-2.6,4.65-5.21,9.3-7.76,13.85c-6.21,0-12.21,0-18.22,0"/>
		<path class="st0" d="M1103.71,782.1c-2.57,4.6-5.14,9.2-7.84,14.03c6.34,0,12.46,0,18.69,0c2.65-4.73,5.25-9.38,7.86-14.03"/>
		<path class="st0" d="M1178.52,304.12c-2.57,4.6-5.14,9.2-7.84,14.03c6.34,0,12.46,0,18.69,0c2.65-4.73,5.25-9.38,7.86-14.03"/>
		<path class="st0" d="M1066.3,495.31c-2.57,4.6-5.14,9.2-7.84,14.03c6.34,0,12.46,0,18.63,0c2.91-5.09,5.75-10.08,8.75-15.33
			c-3-5.36-6.08-10.85-9.01-16.08c3.01-5.27,5.94-10.4,9.02-15.78c-3.01-5.36-6.09-10.86-9-16.06c2.78-4.95,5.47-9.73,8.16-14.51"/>
		<path class="st0" d="M964.12,700.7c-5.77-0.12-11.55-0.23-17.32-0.35"/>
		<path class="st0" d="M1300.44,670.57c-2.8,4.6-5.6,9.2-8.54,14.03c6.35,0,12.46,0,18.67,0c3.19-5.22,6.33-10.36,9.63-15.76
			c4.36,0,8.75,0,13.14,0"/>
		<path class="st0" d="M1244.33,734.3c-2.84,4.65-5.68,9.29-8.68,14.2c-5.87,0-11.76,0-17.65,0"/>
		<path class="st0" d="M1113.41,351.91c-2.8,4.6-5.6,9.2-8.64,14.2c6.1,0,11.87,0,17.65,0"/>
		<path class="st0" d="M1281.74,638.7c-2.84,4.65-5.68,9.29-8.68,14.2c-5.86,0-11.76,0-17.65,0"/>
		<path class="st0" d="M926.37,670.57c-2.8,4.6-5.6,9.2-8.64,14.2c6.1,0,11.87,0,17.65,0"/>
		<path class="st0" d="M1263.03,573.24c-5.66-0.12-11.31-0.23-16.97-0.35"/>
		<path class="st0" d="M916.67,304.12c-2.57,4.6-5.14,9.2-7.94,14.2c6.08,0,11.86,0,17.63,0"/>
		<path class="st0" d="M1141.11,272.25c-2.57,4.6-5.14,9.2-7.94,14.2c6.08,0,11.86,0,17.63,0"/>
		<path class="st0" d="M1103.71,272.25c-2.57,4.6-5.14,9.2-7.94,14.2c6.08,0,11.86,0,17.63,0"/>
		<path class="st0" d="M1290.74,495.31c-2.57,4.6-5.14,9.2-7.94,14.2c6.08,0,11.86,0,17.63,0"/>
		<path class="st0" d="M963.78,796.3c-5.66-0.12-11.31-0.23-16.97-0.35"/>
		<path class="st0" d="M832.85,606.84c-2.84,4.65-5.68,9.29-8.68,14.2c-5.87,0-11.76,0-17.65,0"/>
		<path class="st0" d="M888.96,606.84c-2.8,4.6-5.6,9.2-8.64,14.2c6.1,0,11.87,0,17.65,0"/>
		<path class="st0" d="M1263.03,350.18c-5.66-0.12-11.31-0.23-16.97-0.35"/>
		<path class="st0" d="M1076,350.18c-5.66-0.12-11.31-0.23-16.97-0.35"/>
		<path class="st0" d="M1038.59,796.3c-5.66-0.12-11.31-0.23-16.97-0.35"/>
		<path class="st0" d="M1001.18,798.03c-2.8,4.6-5.6,9.2-8.64,14.2c6.1,0,11.87,0,17.65,0"/>
		<path class="st0" d="M1038.59,350.18c-5.66-0.12-11.31-0.23-16.97-0.35"/>
		<path class="st0" d="M1263.03,766.17c-2.8,4.6-5.6,9.2-8.64,14.2c6.1,0,11.87,0,17.65,0"/>
		<path class="st0" d="M926.37,605.11c-5.66-0.12-11.31-0.23-16.97-0.35"/>
		<path class="st0" d="M1001.18,732.57c-5.66-0.12-11.31-0.23-16.97-0.35"/>
		<path class="st0" d="M1076,413.91c-5.66-0.12-11.31-0.23-16.97-0.35"/>
		<path class="st0" d="M1215.93,335.98c-2.57,4.6-5.14,9.2-7.94,14.2c6.08,0,11.86,0,17.63,0"/>
		<path class="st0" d="M879.26,367.85c-2.57,4.6-5.14,9.2-7.94,14.2c6.08,0,11.86,0,17.63,0"/>
		<path class="st0" d="M1178.52,686.5c-2.57,4.6-5.14,9.2-7.94,14.2c6.08,0,11.86,0,17.63,0"/>
		<path class="st0" d="M954.08,527.17c-2.57,4.6-5.14,9.2-7.94,14.2c6.08,0,11.86,0,17.63,0"/>
		<path class="st0" d="M1057.29,256.32c-2.84,4.65-5.68,9.29-8.68,14.2c-5.87,0-11.76,0-17.65,0"/>
		<path class="st0" d="M1066.3,718.37c-2.57,4.6-5.14,9.2-7.94,14.2c6.08,0,11.86,0,17.63,0"/>
		<path class="st0" d="M1188.22,479.38c-2.8,4.6-5.6,9.2-8.64,14.2c6.1,0,11.87,0,17.65,0"/>
		<path class="st0" d="M1253.34,399.71c-2.57,4.6-5.14,9.2-7.94,14.2c6.08,0,11.86,0,17.63,0"/>
		<path class="st0" d="M1300.44,286.45c-5.66-0.12-11.31-0.23-16.97-0.35"/>
		<path class="st0" d="M954.08,335.98c-2.57,4.6-5.14,9.2-7.94,14.2c6.08,0,11.86,0,17.63,0"/>
		<path class="st0" d="M1215.93,399.71c-2.57,4.6-5.14,9.2-7.94,14.2c6.08,0,11.86,0,17.63,0"/>
		<path class="st0" d="M1178.52,399.71c-2.57,4.6-5.14,9.2-7.94,14.2c6.08,0,11.86,0,17.63,0"/>
		<path class="st0" d="M991.49,399.71c-2.57,4.6-5.14,9.2-7.94,14.2c6.08,0,11.86,0,17.63,0"/>
		<path class="st0" d="M832.85,511.24c-2.84,4.65-5.68,9.29-8.68,14.2c-5.87,0-11.76,0-17.65,0"/>
		<path class="st0" d="M841.86,431.58c-2.57,4.6-5.14,9.2-7.94,14.2c6.08,0,11.86,0,17.63,0"/>
		<path class="st0" d="M870.26,574.97c-2.84,4.65-5.68,9.29-8.68,14.2c-5.87,0-11.76,0-17.65,0"/>
		<path class="st0" d="M1076,288.18c-2.8,4.6-5.6,9.2-8.64,14.2c6.1,0,11.87,0,17.65,0"/>
		<path class="st0" d="M1188.22,541.38c-5.66-0.12-11.31-0.23-16.97-0.35"/>
		<path class="st0" d="M1150.81,541.38c-5.66-0.12-11.31-0.23-16.97-0.35"/>
		<path class="st0" d="M1028.89,654.64c-2.57,4.6-5.14,9.2-7.94,14.2c6.08,0,11.86,0,17.63,0"/>
		<path class="st0" d="M1103.71,654.64c-2.57,4.6-5.14,9.2-7.94,14.2c6.08,0,11.86,0,17.63,0"/>
		<path class="st0" d="M991.49,463.44c-2.57,4.6-5.14,9.2-7.94,14.2c6.08,0,11.86,0,17.63,0"/>
		<path class="st0" d="M888.96,668.84c-5.66-0.12-11.31-0.23-16.97-0.35"/>
		<path class="st0" d="M1028.89,463.44c-2.57,4.6-5.14,9.2-7.94,14.2c6.08,0,11.86,0,17.63,0"/>
		<path class="st0" d="M1150.81,764.43c-5.66-0.12-11.31-0.23-16.97-0.35"/>
		<path class="st0" d="M1150.81,477.64c-5.66-0.12-11.31-0.23-16.97-0.35"/>
		<path class="st0" d="M1215.93,463.44c-2.57,4.6-5.14,9.2-7.94,14.2c6.08,0,11.86,0,17.63,0"/>
		<path class="st0" d="M1103.71,590.91c-2.57,4.6-5.14,9.2-7.94,14.2c6.08,0,11.86,0,17.63,0"/>
		<path class="st0" d="M1066.3,590.91c-2.57,4.6-5.14,9.2-7.94,14.2c6.08,0,11.86,0,17.63,0"/>
		<path class="st0" d="M1001.18,286.45c-5.66-0.12-11.31-0.23-16.97-0.35"/>
		<path class="st0" d="M1030.97,429.85c5.54,0,11.08,0,16.63,0"/>
		<path class="st0" d="M1105.79,557.31c5.54,0,11.08,0,16.63,0"/>
		<path class="st0" d="M918.75,557.31c5.54,0,11.08,0,16.63,0"/>
		<path class="st0" d="M956.16,621.04c5.54,0,11.08,0,16.63,0"/>
		<path class="st0" d="M993.56,557.31c5.54,0,11.08,0,16.63,0"/>
		<path class="st0" d="M1292.82,780.37c5.54,0,11.08,0,16.63,0"/>
		<path class="st0" d="M956.16,493.58c5.54,0,11.08,0,16.63,0"/>
		<path class="st0" d="M1292.82,366.12c5.54,0,11.08,0,16.63,0"/>
		<path class="st0" d="M993.56,366.12c5.54,0,11.08,0,16.63,0"/>
		<path class="st0" d="M1143.19,621.04c5.54,0,11.08,0,16.63,0"/>
		<path class="st0" d="M1255.41,302.38c5.54,0,11.08,0,16.63,0"/>
		<path class="st0" d="M1068.38,684.77c5.54,0,11.08,0,16.63,0"/>
		<path class="st0" d="M956.16,302.38c5.54,0,11.08,0,16.63,0"/>
		<path class="st0" d="M881.34,748.5c5.54,0,11.08,0,16.63,0"/>
		<path class="st0" d="M843.93,684.77c5.54,0,11.08,0,16.63,0"/>
		<path class="st0" d="M1292.82,716.64c5.54,0,11.08,0,16.63,0"/>
		<path class="st0" d="M1030.97,748.5c5.54,0,11.08,0,16.63,0"/>
		<path class="st0" d="M1328.15,335.98c-2.69,4.83-5.37,9.66-8.09,14.56c2.94,5.34,5.86,10.63,8.78,15.92"/>
		<path class="st0" d="M1178.52,590.91c-2.69,4.83-5.37,9.66-8.09,14.56c2.94,5.34,5.86,10.63,8.78,15.92"/>
		<path class="st0" d="M954.08,654.64c-2.69,4.83-5.37,9.66-8.09,14.56c2.94,5.34,5.86,10.63,8.78,15.92"/>
		<path class="st0" d="M991.49,622.77c-2.69,4.83-5.37,9.66-8.09,14.56c2.94,5.34,5.86,10.63,8.78,15.92"/>
		<path class="st0" d="M1028.89,559.04c-2.69,4.83-5.37,9.66-8.09,14.56c2.94,5.34,5.86,10.63,8.78,15.92"/>
		<path class="st0" d="M1103.71,399.71c-2.69,4.83-5.37,9.66-8.09,14.56c2.94,5.34,5.86,10.63,8.78,15.92"/>
		<path class="st0" d="M1215.93,590.91c-2.69,4.83-5.37,9.66-8.09,14.56c2.94,5.34,5.86,10.63,8.78,15.92"/>
		<path class="st0" d="M1103.71,463.44c-2.69,4.83-5.37,9.66-8.09,14.56c2.94,5.34,5.86,10.63,8.78,15.92"/>
		<path class="st0" d="M1215.93,272.25c-2.69,4.83-5.37,9.66-8.09,14.56c2.94,5.34,5.86,10.63,8.78,15.92"/>
		<path class="st0" d="M916.67,718.37c-2.69,4.83-5.37,9.66-8.09,14.56c2.94,5.34,5.86,10.63,8.78,15.92"/>
		<path class="st0" d="M1253.68,240.04c-2.82,4.94-5.64,9.87-8.48,14.83c2.98,5.41,5.9,10.7,8.82,15.99"/>
		<path class="st0" d="M1290.74,399.71c-2.69,4.83-5.37,9.66-8.09,14.56c2.94,5.34,5.86,10.63,8.78,15.92"/>
		<path class="st0" d="M1141.11,367.85c-2.69,4.83-5.37,9.66-8.09,14.56c2.94,5.34,5.86,10.63,8.78,15.92"/>
		<path class="st0" d="M1333.35,366.12c-1.27,0-2.54,0-4.12,0c-3.01,5.31-6.09,10.76-9.19,16.24c2.97,5.39,5.89,10.68,8.81,15.97"/>
		<path class="st0" d="M926.37,415.65c-2.91,4.83-5.83,9.66-8.79,14.56c3.19,5.32,6.36,10.6,9.54,15.91
			c-3.18,5.32-6.33,10.61-9.53,15.97c3.18,5.31,6.35,10.59,9.53,15.89c-3.18,5.32-6.33,10.61-9.55,15.99
			c2.94,4.84,5.86,9.67,8.79,14.49"/>
		<path class="st0" d="M972.78,686.5c-2.69,4.78-5.38,9.56-8.17,14.52c2.87,5.1,5.91,10.5,9.02,16.01
			c-2.99,5.24-5.96,10.45-9.03,15.83c2.89,5.12,5.93,10.53,9.03,16.03c-2.99,5.24-5.96,10.45-9.02,15.82
			c2.62,4.69,5.4,9.65,8.18,14.61"/>
		<path class="st0" d="M823.15,431.58c-2.69,4.78-5.38,9.56-8.17,14.52c2.87,5.1,5.91,10.5,9.02,16.01
			c-2.99,5.24-5.96,10.45-9.02,15.82c2.62,4.69,5.4,9.65,8.18,14.61"/>
		<path class="st0" d="M785.75,495.31c-2.69,4.78-5.38,9.56-8.17,14.52c2.87,5.1,5.91,10.5,9.02,16.01
			c-2.99,5.24-5.96,10.45-9.02,15.82c2.62,4.69,5.4,9.65,8.18,14.61"/>
		<path class="st0" d="M1159.82,399.71c-2.69,4.78-5.38,9.56-8.17,14.52c2.87,5.1,5.91,10.5,9.02,16.01
			c-2.99,5.24-5.96,10.45-9.02,15.82c2.62,4.69,5.4,9.65,8.18,14.61"/>
		<path class="st0" d="M1197.23,622.77c-2.69,4.78-5.38,9.56-8.17,14.52c2.87,5.1,5.91,10.5,9.02,16.01
			c-2.99,5.24-5.96,10.45-9.02,15.82c2.62,4.69,5.4,9.65,8.18,14.61"/>
		<path class="st0" d="M1333.35,732.57c-4.51,0-9.03,0-13.55,0c3.22,5.79,6.13,11.03,9.04,16.28"/>
		<path class="st0" d="M1333.35,796.3c-4.51,0-9.03,0-13.55,0c3.22,5.79,6.13,11.03,9.04,16.28"/>
		<path class="st0" d="M1333.35,254.59c-4.27,0-8.54,0-13.18,0c-3.04,5.09-6.19,10.34-9.33,15.59"/>
		<path class="st0" d="M1333.35,509.51c-4.27,0-8.54,0-13.18,0c-3.04,5.09-6.19,10.34-9.33,15.59"/>
		<path class="st0" d="M1141.11,750.23c-2.69,4.83-5.37,9.66-8.11,14.6c2.71,4.85,5.41,9.67,8.11,14.49"/>
		<path class="st0" d="M1333.35,636.97c-4.27,0-8.54,0-13.18,0c-3.04,5.09-6.19,10.34-9.33,15.59"/>
		<path class="st0" d="M1150.81,606.84c-2.91,4.83-5.83,9.66-8.8,14.59c2.95,4.86,5.87,9.68,8.8,14.51"/>
		<path class="st0" d="M963.78,479.38c-2.91,4.83-5.83,9.66-8.8,14.59c2.95,4.86,5.87,9.68,8.8,14.51"/>
		<path class="st0" d="M1333.35,748.5c-1.27,0-2.54,0-4.11,0c-2.9,5.08-5.87,10.29-9.09,15.93c4.65,0,8.92,0,13.2,0"/>
		<path class="st0" d="M963.78,606.84c-2.91,4.83-5.83,9.66-8.8,14.59c2.95,4.86,5.87,9.68,8.8,14.51"/>
		<path class="st0" d="M1141.11,463.44c-2.69,4.83-5.37,9.66-8.11,14.6c2.71,4.85,5.41,9.67,8.11,14.5"/>
		<path class="st0" d="M879.26,654.64c-2.69,4.83-5.37,9.66-8.11,14.6c2.71,4.85,5.41,9.67,8.11,14.5"/>
		<path class="st0" d="M1141.11,527.17c-2.69,4.83-5.37,9.66-8.11,14.6c2.71,4.85,5.41,9.67,8.11,14.49"/>
		<path class="st0" d="M1178.52,527.17c-2.69,4.83-5.37,9.66-8.11,14.6c2.71,4.85,5.41,9.67,8.11,14.5"/>
		<path class="st0" d="M1333.35,573.24c-4.27,0-8.54,0-13.18,0c-3.04,5.09-6.19,10.34-9.33,15.59"/>
		<path class="st0" d="M954.42,240.04c-2.82,4.94-5.64,9.87-8.5,14.87c2.75,4.92,5.45,9.74,8.15,14.57"/>
		<path class="st0" d="M1333.35,605.11c-4.27,0-8.54,0-13.18,0c-3.04,5.09-6.19,10.34-9.33,15.59"/>
		<path class="st0" d="M851.55,670.57c-2.91,4.83-5.83,9.66-8.8,14.59c2.95,4.86,5.87,9.68,8.8,14.51"/>
		<path class="st0" d="M1333.35,541.38c-4.27,0-8.54,0-13.18,0c-3.04,5.09-6.19,10.34-9.33,15.59"/>
		<path class="st0" d="M1076,670.57c-2.91,4.83-5.83,9.66-8.8,14.59c2.95,4.86,5.87,9.68,8.8,14.51"/>
		<path class="st0" d="M991.49,272.25c-2.69,4.83-5.37,9.66-8.11,14.6c2.71,4.85,5.41,9.67,8.11,14.5"/>
		<path class="st0" d="M1290.74,272.25c-2.69,4.83-5.37,9.66-8.11,14.6c2.71,4.85,5.41,9.67,8.11,14.49"/>
		<path class="st0" d="M1028.89,782.1c-2.69,4.83-5.37,9.66-8.11,14.6c2.71,4.85,5.41,9.67,8.11,14.5"/>
		<path class="st0" d="M916.67,590.91c-2.69,4.83-5.37,9.66-8.11,14.6c2.71,4.85,5.41,9.67,8.11,14.5"/>
		<path class="st0" d="M1333.35,812.23c-1.27,0-2.54,0-4.11,0c-2.9,5.08-5.87,10.3-9.09,15.93c4.65,0,8.92,0,13.2,0"/>
		<path class="st0" d="M954.08,782.1c-2.69,4.83-5.37,9.66-8.11,14.6c2.71,4.85,5.41,9.67,8.11,14.5"/>
		<path class="st0" d="M1038.59,415.65c-2.91,4.83-5.83,9.66-8.8,14.59c2.95,4.86,5.87,9.68,8.8,14.51"/>
		<path class="st0" d="M926.37,543.11c-2.91,4.83-5.83,9.66-8.8,14.59c2.95,4.86,5.87,9.68,8.8,14.51"/>
		<path class="st0" d="M1328.15,686.5c-2.69,4.83-5.37,9.66-8.11,14.6c2.71,4.85,5.41,9.67,8.11,14.49"/>
		<path class="st0" d="M1001.18,543.11c-2.91,4.83-5.83,9.66-8.8,14.59c2.95,4.86,5.87,9.68,8.8,14.51"/>
		<path class="st0" d="M1113.41,543.11c-2.91,4.83-5.83,9.66-8.8,14.59c2.95,4.86,5.87,9.68,8.8,14.51"/>
		<path class="st0" d="M1066.3,399.71c-2.69,4.83-5.37,9.66-8.11,14.6c2.71,4.85,5.41,9.67,8.11,14.5"/>
		<path class="st0" d="M963.78,288.18c-2.91,4.83-5.83,9.66-8.8,14.59c2.95,4.86,5.87,9.68,8.8,14.51"/>
		<path class="st0" d="M1300.44,702.43c-2.91,4.83-5.83,9.66-8.8,14.59c2.95,4.86,5.87,9.68,8.8,14.51"/>
		<path class="st0" d="M1333.35,397.98c-1.27,0-2.54,0-4.11,0c-2.9,5.08-5.87,10.29-9.09,15.93c4.65,0,8.92,0,13.2,0"/>
		<path class="st0" d="M1028.89,335.98c-2.69,4.83-5.37,9.66-8.11,14.6c2.71,4.85,5.41,9.67,8.11,14.5"/>
		<path class="st0" d="M1263.03,288.18c-2.91,4.83-5.83,9.66-8.8,14.59c2.95,4.86,5.87,9.68,8.8,14.51"/>
		<path class="st0" d="M1300.44,766.17c-2.91,4.83-5.83,9.66-8.8,14.59c2.95,4.86,5.87,9.68,8.8,14.51"/>
		<path class="st0" d="M974.51,240.04c2.89,4.96,5.77,9.93,8.66,14.89"/>
		<path class="st0" d="M1066.3,335.98c-2.69,4.83-5.37,9.66-8.11,14.6c2.71,4.85,5.41,9.67,8.11,14.5"/>
		<path class="st0" d="M1253.34,335.98c-2.69,4.83-5.37,9.66-8.11,14.6c2.71,4.85,5.41,9.67,8.11,14.5"/>
		<path class="st0" d="M991.49,718.37c-2.69,4.83-5.37,9.66-8.11,14.6c2.71,4.85,5.41,9.67,8.11,14.5"/>
		<path class="st0" d="M1038.59,734.3c-2.91,4.83-5.83,9.66-8.8,14.59c2.95,4.86,5.87,9.68,8.8,14.51"/>
		<path class="st0" d="M1300.44,351.91c-2.91,4.83-5.83,9.66-8.8,14.59c2.95,4.86,5.87,9.68,8.8,14.51"/>
		<path class="st0" d="M899.7,240.04c2.89,4.96,5.77,9.93,8.66,14.89"/>
		<path class="st0" d="M1001.18,351.91c-2.91,4.83-5.83,9.66-8.8,14.59c2.95,4.86,5.87,9.68,8.8,14.51"/>
		<path class="st0" d="M1253.34,559.04c-2.69,4.83-5.37,9.66-8.11,14.6c2.71,4.85,5.41,9.67,8.11,14.49"/>
		<path class="st0" d="M888.96,734.3c-2.91,4.83-5.83,9.66-8.8,14.59c2.95,4.86,5.87,9.68,8.8,14.51"/>
		<path class="st0" d="M897.97,559.04c-2.69,4.78-5.38,9.56-8.16,14.51c2.61,4.66,5.38,9.62,8.16,14.59"/>
		<path class="st0" d="M823.15,559.04c-2.69,4.78-5.38,9.56-8.16,14.51c2.61,4.66,5.38,9.62,8.16,14.59"/>
		<path class="st0" d="M897.97,335.98c-2.69,4.78-5.38,9.56-8.16,14.51c2.61,4.66,5.38,9.62,8.16,14.59"/>
		<path class="st0" d="M1047.6,367.85c-2.69,4.78-5.38,9.56-8.16,14.51c2.61,4.66,5.38,9.62,8.16,14.59"/>
		<path class="st0" d="M1085,367.85c-2.69,4.78-5.38,9.56-8.16,14.51c2.61,4.66,5.38,9.62,8.16,14.59"/>
		<path class="st0" d="M1272.04,367.85c-2.69,4.78-5.38,9.56-8.16,14.51c2.61,4.66,5.38,9.62,8.16,14.59"/>
		<path class="st0" d="M1159.82,559.04c-2.69,4.78-5.38,9.56-8.16,14.51c2.61,4.66,5.38,9.62,8.16,14.59"/>
		<path class="st0" d="M860.56,399.71c-2.69,4.78-5.38,9.56-8.16,14.51c2.61,4.66,5.38,9.62,8.16,14.59"/>
		<path class="st0" d="M897.97,686.5c-2.69,4.78-5.38,9.56-8.16,14.51c2.61,4.66,5.38,9.62,8.16,14.59"/>
		<path class="st0" d="M1047.6,304.12c-2.69,4.78-5.38,9.56-8.16,14.51c2.61,4.66,5.38,9.62,8.16,14.59"/>
		<path class="st0" d="M1010.19,750.23c-2.69,4.78-5.38,9.56-8.16,14.51c2.61,4.66,5.38,9.62,8.16,14.59"/>
		<path class="st0" d="M1234.63,304.12c-2.69,4.78-5.38,9.56-8.16,14.51c2.61,4.66,5.38,9.62,8.16,14.59"/>
		<path class="st0" d="M1309.45,304.12c-2.69,4.78-5.38,9.56-8.16,14.51c2.61,4.66,5.38,9.62,8.16,14.59"/>
		<path class="st0" d="M935.37,622.77c-2.69,4.78-5.38,9.56-8.16,14.51c2.61,4.66,5.38,9.62,8.16,14.59"/>
		<path class="st0" d="M860.56,495.31c-2.69,4.78-5.38,9.56-8.16,14.51c2.61,4.66,5.38,9.62,8.16,14.59"/>
		<path class="st0" d="M860.56,622.77c-2.69,4.78-5.38,9.56-8.16,14.51c2.61,4.66,5.38,9.62,8.16,14.59"/>
		<path class="st0" d="M1122.41,495.31c-2.69,4.78-5.38,9.56-8.16,14.51c2.61,4.66,5.38,9.62,8.16,14.59"/>
		<path class="st0" d="M1159.82,495.31c-2.69,4.78-5.38,9.56-8.16,14.51c2.61,4.66,5.38,9.62,8.16,14.59"/>
		<path class="st0" d="M1333.35,477.64c-4.51,0-9.03,0-13.6,0c3.01,5.34,5.71,10.12,8.41,14.89"/>
		<path class="st0" d="M1057.29,447.51c-2.77,4.62-5.54,9.24-8.31,13.85"/>
		<path class="st0" d="M945.07,447.51c-2.77,4.62-5.54,9.24-8.31,13.85"/>
		<path class="st0" d="M870.26,447.51c-2.77,4.62-5.54,9.24-8.31,13.85"/>
		<path class="st0" d="M1281.74,320.05c-2.77,4.62-5.54,9.24-8.31,13.85"/>
		<path class="st0" d="M982.48,320.05c-2.77,4.62-5.54,9.24-8.31,13.85"/>
		<path class="st0" d="M982.48,511.24c-2.77,4.62-5.54,9.24-8.31,13.85"/>
		<path class="st0" d="M870.26,320.05c-2.77,4.62-5.54,9.24-8.31,13.85"/>
		<path class="st0" d="M907.67,511.24c-2.77,4.62-5.54,9.24-8.31,13.85"/>
		<path class="st0" d="M1281.74,670.57c-2.77,4.62-5.54,9.24-8.31,13.85"/>
		<path class="st0" d="M758.04,511.24c-2.77,4.62-5.54,9.24-8.31,13.85"/>
		<path class="st0" d="M1057.29,766.17c-2.77,4.62-5.54,9.24-8.31,13.85"/>
		<path class="st0" d="M1244.33,670.57c-2.77,4.62-5.54,9.24-8.31,13.85"/>
		<path class="st0" d="M1319.15,734.3c-2.77,4.62-5.54,9.24-8.31,13.85"/>
		<path class="st0" d="M1132.11,574.97c-2.77,4.62-5.54,9.24-8.31,13.85"/>
		<path class="st0" d="M1281.74,734.3c-2.77,4.62-5.54,9.24-8.31,13.85"/>
		<path class="st0" d="M1244.33,766.17c-2.77,4.62-5.54,9.24-8.31,13.85"/>
		<path class="st0" d="M945.07,574.97c-2.77,4.62-5.54,9.24-8.31,13.85"/>
		<path class="st0" d="M1244.33,606.84c-2.77,4.62-5.54,9.24-8.31,13.85"/>
		<path class="st0" d="M832.85,638.7c-2.77,4.62-5.54,9.24-8.31,13.85"/>
		<path class="st0" d="M1057.29,638.7c-2.77,4.62-5.54,9.24-8.31,13.85"/>
		<path class="st0" d="M1019.89,288.18c-2.77,4.62-5.54,9.24-8.31,13.85"/>
		<path class="st0" d="M795.44,574.97c-2.77,4.62-5.54,9.24-8.31,13.85"/>
		<path class="st0" d="M1328.15,431.58c-2.57,4.6-5.14,9.2-7.94,14.2c4.58,0,8.86,0,13.13,0"/>
		<path class="st0" d="M832.85,383.78c-2.77,4.62-5.54,9.24-8.31,13.85"/>
		<path class="st0" d="M1328.15,272.25c-2.57,4.6-5.14,9.2-7.94,14.2c4.58,0,8.86,0,13.13,0"/>
		<path class="st0" d="M907.67,383.78c-2.77,4.62-5.54,9.24-8.31,13.85"/>
		<path class="st0" d="M1019.89,383.78c-2.77,4.62-5.54,9.24-8.31,13.85"/>
		<path class="st0" d="M1319.15,479.38c-2.77,4.62-5.54,9.24-8.31,13.85"/>
		<path class="st0" d="M1319.15,798.03c-2.77,4.62-5.54,9.24-8.31,13.85"/>
		<path class="st0" d="M1206.92,702.43c-2.77,4.62-5.54,9.24-8.31,13.85"/>
		<path class="st0" d="M1094.7,702.43c-2.77,4.62-5.54,9.24-8.31,13.85"/>
		<path class="st0" d="M1019.89,702.43c-2.77,4.62-5.54,9.24-8.31,13.85"/>
		<path class="st0" d="M870.26,702.43c-2.77,4.62-5.54,9.24-8.31,13.85"/>
		<path class="st0" d="M1292.48,240.04c2.66,4.5,5.31,9.01,7.97,13.51"/>
		<path class="st0" d="M1142.85,240.04c2.66,4.5,5.31,9.01,7.97,13.51"/>
		<path class="st0" d="M1105.44,240.04c2.66,4.5,5.31,9.01,7.97,13.51"/>
		<path class="st0" d="M1068.03,240.04c2.66,4.5,5.31,9.01,7.97,13.51"/>
		<path class="st0" d="M918.4,240.04c2.66,4.5,5.31,9.01,7.97,13.51"/>
		<path class="st0" d="M1333.35,382.05c-4.16-0.12-8.31-0.23-12.47-0.35"/>
		<path class="st0" d="M1333.35,700.7c-4.16-0.12-8.31-0.23-12.47-0.35"/>
		<path class="st0" d="M1333.35,350.18c-4.16-0.12-8.31-0.23-12.47-0.35"/>
		<path class="st0" d="M1333.35,645.98c-1.39,2.42-2.77,4.85-4.2,7.35c1.39,2.37,2.79,4.79,4.2,7.2"/>
		<path class="st0" d="M1333.35,550.38c-1.39,2.42-2.77,4.85-4.2,7.35c1.39,2.37,2.79,4.79,4.2,7.2"/>
		<path class="st0" d="M1333.35,454.78c-1.39,2.42-2.77,4.85-4.2,7.35c1.39,2.37,2.79,4.79,4.2,7.2"/>
		<path class="st0" d="M1333.35,295.46c-1.39,2.42-2.77,4.85-4.2,7.35c1.39,2.37,2.79,4.79,4.2,7.2"/>
		<path class="st0" d="M1333.35,773.44c-1.39,2.42-2.77,4.85-4.2,7.35c1.39,2.37,2.79,4.79,4.2,7.2"/>
		<path class="st0" d="M1333.35,582.25c-1.39,2.42-2.77,4.85-4.2,7.35c1.39,2.37,2.79,4.79,4.2,7.2"/>
		<path class="st0" d="M1333.35,518.52c-1.39,2.42-2.77,4.85-4.2,7.35c1.39,2.37,2.79,4.79,4.2,7.2"/>
		<path class="st0" d="M1333.35,614.11c-1.39,2.42-2.77,4.85-4.2,7.35c1.39,2.37,2.79,4.79,4.2,7.2"/>
		<path class="st0" d="M1333.35,270.52c-1.51,0-3.01,0-4.69,0c1.8,2.93,3.24,5.27,4.69,7.62"/>
		<path class="st0" d="M1333.35,429.85c-1.51,0-3.01,0-4.69,0c1.8,2.93,3.24,5.27,4.69,7.62"/>
		<path class="st0" d="M1333.35,684.77c-1.51,0-3.01,0-4.69,0c1.8,2.93,3.24,5.27,4.69,7.62"/>
		<path class="st0" d="M1333.35,334.25c-1.51,0-3.01,0-4.69,0c1.8,2.93,3.24,5.27,4.69,7.62"/>
		<path class="st0" d="M1333.35,486.65c-1.29,2.18-2.57,4.37-4.08,6.93c1.54,0,2.81,0,4.08,0"/>
		<path class="st0" d="M1333.35,709.71c-1.29,2.18-2.57,4.37-4.08,6.93c1.54,0,2.81,0,4.08,0"/>
		<path class="st0" d="M1329.88,240.04c1.15,2.08,2.31,4.16,3.46,6.23"/>
		<path class="st0" d="M1330.23,589.17c1.04,0,2.08,0,3.12,0"/>
		<path class="st0" d="M1330.23,461.71c1.04,0,2.08,0,3.12,0"/>
		<path class="st0" d="M1330.23,557.31c1.04,0,2.08,0,3.12,0"/>
		<path class="st0" d="M1330.23,302.38c1.04,0,2.08,0,3.12,0"/>
		<path class="st0" d="M1330.23,780.37c1.04,0,2.08,0,3.12,0"/>
		<path class="st0" d="M1330.23,621.04c1.04,0,2.08,0,3.12,0"/>
		<path class="st0" d="M1330.23,525.44c1.04,0,2.08,0,3.12,0"/>
		<path class="st0" d="M1330.23,652.9c1.04,0,2.08,0,3.12,0"/>
	</g>
</g>
</svg>
